<svg width="18" height="19" viewBox="0 0 18 19" fill="none" xmlns="http://www.w3.org/2000/svg">
<path d="M14.6616 8.14942L15.4866 6.84949L14.3492 6.34951C14.1867 6.29952 14.0492 6.19952 13.9617 6.03703C13.8742 5.87454 13.8742 5.68705 13.9367 5.51206L14.5866 3.69965L12.6242 4.7496C12.4618 4.82459 12.2743 4.8121 12.1243 4.7496C11.9743 4.6871 11.8618 4.56211 11.8118 4.41212L11.3118 3.43717L10.4744 4.22463C10.2369 4.42462 9.91189 4.41212 9.6744 4.22463L7.812 2.69971L6.91205 4.21213C6.76206 4.49961 6.39958 4.61211 6.09959 4.47461L3.81221 3.38717L4.32468 5.19958C4.37468 5.36207 4.34968 5.54956 4.24969 5.69955C4.16219 5.84954 4.0122 5.94954 3.83721 5.97453L2.98726 6.12453L3.37473 6.82449C3.47473 6.94948 3.51223 7.11197 3.48723 7.27447C3.46223 7.44946 3.36224 7.61195 3.21224 7.69944L2.0498 8.4494L3.59972 9.21186C3.78721 9.29936 3.91221 9.46185 3.9497 9.64934C3.9872 9.83683 3.93721 10.0243 3.81221 10.1743L3.13725 11.1493L4.1122 11.3118C4.31219 11.3368 4.48718 11.4617 4.58717 11.6367C4.68717 11.8242 4.68717 12.0367 4.58717 12.2242L2.49978 15.9615L6.36208 13.2741C6.51207 13.1617 6.71206 13.1367 6.88705 13.1867C7.06204 13.2367 7.21203 13.3741 7.28703 13.5491L7.29953 13.5866L7.53702 14.3866L9.37442 13.2492C9.57441 13.1117 9.84939 13.1117 10.0494 13.2367L11.5118 14.1241L11.7118 13.2866C11.7368 13.1117 11.8493 12.9492 11.9993 12.8617C12.1618 12.7617 12.3618 12.7492 12.5368 12.8117L14.6491 13.5991L13.9742 11.6242C13.8992 11.4617 13.9117 11.2743 13.9867 11.1118C14.0617 10.9493 14.2117 10.8243 14.3867 10.7868L16.0241 10.2993L14.6866 8.93688C14.4866 8.73689 14.4866 8.38691 14.6616 8.14942Z" fill="white"/>
<path d="M16.7483 9.98724L15.3109 8.53732L16.2234 7.09989L16.2359 7.08739C16.3359 6.9249 16.3359 6.71241 16.2609 6.53742C16.1859 6.37493 16.0484 6.26244 15.8734 6.21244L14.6859 5.68747L15.4109 3.67507C15.5109 3.45008 15.4609 3.1876 15.2859 3.00011C15.1109 2.81262 14.8359 2.76262 14.5985 2.86262L12.4486 4.01256L11.8986 2.93761C11.8361 2.76262 11.7111 2.65013 11.5486 2.60013C11.3611 2.53763 11.1361 2.60013 10.9736 2.73762L10.0862 3.57508L8.18629 2.02516C8.0363 1.90017 7.84881 1.85017 7.66132 1.88767C7.47383 1.92517 7.32384 2.03766 7.23634 2.20015L6.32389 3.75007L3.87402 2.58763C3.64903 2.48764 3.39904 2.51263 3.21155 2.67513C3.02406 2.83762 2.94907 3.0751 3.01156 3.31259L3.56153 5.27499L2.64908 5.42498C2.43659 5.46248 2.2491 5.61247 2.17411 5.82496C2.09911 6.01245 2.13661 6.23744 2.2616 6.39993L2.67408 7.14989L1.43665 7.94985C1.24916 8.07484 1.13666 8.29983 1.16166 8.52482C1.18666 8.74981 1.32415 8.9373 1.52414 9.02479L3.13656 9.81225L2.3741 10.9247C2.2366 11.0872 2.18661 11.2872 2.2616 11.4747C2.3366 11.6747 2.53659 11.8246 2.78657 11.8496L3.83652 12.0246L1.54914 16.0994C1.41165 16.3494 1.46164 16.6619 1.67413 16.8619C1.78663 16.9619 1.93662 17.0244 2.08661 17.0244C2.21161 17.0244 2.3366 16.9869 2.43659 16.9119L6.62387 13.9995L6.86136 14.787L6.87386 14.8245C6.94885 14.9995 7.08635 15.1245 7.27384 15.187C7.44883 15.237 7.63632 15.212 7.78631 15.0995L9.71121 13.9245L11.2611 14.862C11.4361 14.9745 11.6611 14.9995 11.8486 14.912C12.0361 14.8245 12.1736 14.6495 12.1986 14.4495L12.3986 13.5871L14.6359 14.4245C14.8734 14.512 15.1359 14.4495 15.2984 14.262C15.4609 14.087 15.5109 13.8245 15.4109 13.5996L14.6859 11.4872L16.4109 10.9747C16.6108 10.9247 16.7733 10.7747 16.8358 10.5747C16.9233 10.3747 16.8858 10.1497 16.7483 9.98724ZM14.386 10.7997C14.211 10.8497 14.061 10.9622 13.986 11.1247C13.911 11.2872 13.8985 11.4747 13.9735 11.6372L14.6484 13.6121L12.5361 12.8246C12.3611 12.7621 12.1611 12.7746 11.9986 12.8746C11.8486 12.9746 11.7361 13.1246 11.7111 13.2996L11.5111 14.137L10.0487 13.2496C9.8362 13.1121 9.57372 13.1121 9.37373 13.2621L7.52383 14.387L7.28634 13.5871L7.27384 13.5496C7.19884 13.3746 7.06135 13.2496 6.87386 13.1871C6.68637 13.1246 6.49888 13.1621 6.34889 13.2746L2.48659 15.9619L4.57398 12.2246C4.67398 12.0371 4.67398 11.8246 4.57398 11.6372C4.47399 11.4622 4.299 11.3372 4.09901 11.3122L3.12406 11.1497L3.79902 10.1747C3.92401 10.0247 3.97401 9.83725 3.93651 9.64976C3.89902 9.44977 3.76152 9.28728 3.58653 9.21228L2.04911 8.44982L3.21155 7.69986C3.36154 7.59987 3.46154 7.44987 3.48654 7.27488C3.51154 7.11239 3.46154 6.9499 3.37404 6.82491L2.98656 6.12494L3.84902 5.97495C4.02401 5.94995 4.174 5.83746 4.2615 5.69997C4.34899 5.54997 4.37399 5.37498 4.33649 5.19999L3.82402 3.38759L6.1114 4.47503C6.41138 4.61252 6.76137 4.50003 6.92386 4.21254L7.82381 2.70012L9.68621 4.22504C9.9112 4.42503 10.2487 4.42503 10.4862 4.22504L11.3236 3.45008L11.8236 4.42503C11.8736 4.57503 11.9986 4.70002 12.1361 4.76252C12.2986 4.83751 12.4861 4.83751 12.6361 4.76252L14.5985 3.71257L13.9485 5.52498C13.8735 5.68747 13.886 5.88746 13.9735 6.04995C14.0485 6.19994 14.186 6.31243 14.361 6.36243L15.4984 6.86241L14.6734 8.16234C14.4985 8.38732 14.4985 8.73731 14.6859 8.96229L16.0234 10.3247L14.386 10.7997Z" fill="#2F2F2F"/>
</svg>
