<svg width="41" height="37" viewBox="0 0 41 37" fill="none" xmlns="http://www.w3.org/2000/svg">
<path d="M25.1483 23.28L25.6934 24.7248C25.6934 24.7248 24.8574 25.1227 24.9611 26.3166C25.0647 27.5106 25.9576 28.1794 26.7201 28.2831C27.6632 28.4135 28.4157 27.4671 28.2485 26.3768C28.0813 25.2866 27.3288 24.6612 27.3288 24.6612L27.3087 23.4038L25.1483 23.28Z" fill="#858585"/>
<path d="M8.34277 6.16802C8.36284 6.05766 9.69052 4.86041 10.647 4.08453C11.6068 3.30866 12.172 2.77023 12.3994 2.77692C12.6469 2.78026 13.396 3.20164 13.911 3.49594C14.3558 3.7501 14.9611 4.14139 14.9611 4.14139L14.0013 5.83694C14.0013 5.83694 10.5901 9.93035 10.5333 9.89356C10.4831 9.85677 8.34277 6.16802 8.34277 6.16802Z" fill="white"/>
<path d="M10.667 9.0639C10.667 9.0639 12.4562 6.87005 13.2856 5.94703C14.115 5.024 14.9644 4.14111 14.9644 4.14111C14.9644 4.14111 15.2955 4.30833 15.2788 4.63941C15.2587 4.9705 15.1115 5.22801 14.8908 5.52565C14.6701 5.81995 11.59 9.78627 11.59 9.78627L10.667 9.0639Z" fill="white"/>
<path d="M23.9346 11.9899C23.9346 11.9899 35.8469 1.04075 35.9974 0.990584C36.1479 0.94042 36.6663 1.04075 37.4555 1.28823C38.2481 1.5357 39.6059 2.17781 39.5825 2.32495C39.5591 2.4721 39.4086 3.2647 39.4086 3.2647C39.4086 3.2647 29.9275 18.3642 29.2854 17.5247C28.6433 16.6853 23.9346 11.9899 23.9346 11.9899Z" fill="white"/>
<path d="M29.7393 16.5283C29.7393 16.5283 39.0498 2.98059 39.1902 2.80334C39.3976 2.53914 39.2303 2.21809 39.0029 1.97061C38.7722 1.71979 38.5849 1.65625 38.5849 1.65625C38.5849 1.65625 39.334 1.93717 39.6684 2.15789C40.043 2.40203 40.3373 2.6796 40.2738 2.95049C40.2102 3.22138 30.6389 17.7757 30.5987 17.6921C30.5586 17.6085 29.7393 16.5283 29.7393 16.5283Z" fill="white"/>
<path d="M3.72409 0.49847C3.72409 0.49847 3.43648 0.274403 3.27595 0.465027C3.11543 0.655651 4.71734 9.69191 4.71734 9.69191L8.55993 12.3506L17.4959 20.3903L25.7897 23.6844L27.7294 24.3165C27.7294 24.3165 29.5621 23.0691 29.5621 22.9921C29.5621 22.9152 27.6558 17.0627 27.6558 17.0627L9.98459 10.4644L3.72409 0.49847Z" fill="#9A9A9A"/>
<path d="M7.24002 2.32117C6.88887 1.93658 3.72852 0.498535 3.72852 0.498535L8.56435 10.9561L9.19977 11.6685C9.19977 11.6685 11.2599 13.7486 13.4236 15.3773C15.5874 17.0059 17.4133 17.7417 18.9818 18.5677C20.9014 19.5777 22.4766 20.0894 23.7307 20.6345C25.2557 21.3 26.5934 21.6712 27.2723 22.5775C27.8943 23.4069 27.7305 24.3165 27.7305 24.3165C27.7305 24.3165 28.9979 24.8951 30.5497 25.2496C32.1014 25.6074 35.4859 26.0389 36.352 24.0022C37.2182 21.9655 35.9942 19.8787 33.0445 18.1229C30.0949 16.3672 28.7438 16.0863 28.7438 16.0863L27.9278 13.8222C27.9278 13.8222 25.7908 12.043 24.443 11.5313C23.0953 11.023 17.42 10.003 17.42 10.003L10.805 9.21375C10.8017 9.21709 7.51759 2.62885 7.24002 2.32117Z" fill="#C8C8C8"/>
<path d="M16.8884 19.7953C16.5874 19.9056 13.7281 23.5007 13.0258 24.3468C12.4071 25.0926 5.38072 33.2761 5.17003 33.6707C4.95934 34.0653 5.51114 34.5636 5.51114 34.5636L9.4574 36.1421L22.1891 25.6779L24.9414 22.056C24.9414 22.056 23.1054 20.9959 20.8681 20.4942C18.6308 19.9926 17.1794 19.6916 16.8884 19.7953Z" fill="white"/>
<path d="M24.9374 22.0562C24.9374 22.0562 9.93158 35.3698 9.58712 35.4567C9.31623 35.5236 7.91498 35.1524 6.75451 34.5972C5.7646 34.1257 5.17266 33.6709 5.17266 33.6709C5.17266 33.6709 4.75128 34.1457 5.27633 34.8815C5.80139 35.6172 8.87813 36.9048 9.42994 36.8279C9.98175 36.7476 10.8747 35.8547 11.6372 35.2226C12.3997 34.5905 25.6798 23.2568 25.6798 23.2568C25.6798 23.2568 25.6665 22.8387 25.4959 22.5745C25.2618 22.2066 24.9374 22.0562 24.9374 22.0562Z" fill="white"/>
<path d="M17.4849 20.8559C17.0702 20.6486 16.5987 21.1703 16.1974 21.6853C15.796 22.2003 7.95369 31.561 7.69618 31.9055C7.43867 32.2499 7.23801 32.6211 7.60923 32.8486C7.98044 33.076 8.355 32.678 8.69612 32.2466C9.04058 31.8185 17.2541 22.0264 17.4849 21.7689C17.7157 21.5114 18.0568 21.1435 17.4849 20.8559Z" fill="#B4DDFA"/>
<path d="M34.7397 29.6382C35.0608 30.0329 37.7663 28.4109 39.1977 25.9227C40.5354 23.5951 41.2811 20.6555 40.3882 20.6321C39.4953 20.6087 39.6491 22.2708 39.2779 23.5349C39.0472 24.3242 38.4987 25.9261 36.9871 27.411C35.4922 28.8858 34.4254 29.247 34.7397 29.6382Z" fill="#E1E0DF"/>
<path d="M22.0236 15.7283C21.8163 15.6514 21.6892 15.7985 21.7494 16.0761C21.7928 16.2835 22.2209 18.7549 22.2577 18.9622C22.2945 19.1696 22.5219 19.3401 22.8229 19.4706C23.1239 19.601 25.01 20.4906 25.2375 20.5274C25.4649 20.5642 25.5384 20.2632 25.408 19.8685C25.2776 19.4739 24.7258 17.6814 24.1673 16.9456C23.7225 16.357 22.5119 15.9089 22.0236 15.7283Z" fill="white"/>
<path d="M16.6529 10.3645C16.4756 10.7022 16.6796 10.9999 18.3585 11.5082C19.937 11.9864 20.7496 12.3209 21.6158 12.6787C22.482 13.0365 23.7026 13.7489 24.3882 13.9495C25.0738 14.1535 25.9166 14.2304 26.3981 13.6184C26.6891 13.2506 26.348 12.575 25.328 11.963C24.308 11.351 22.9602 10.8427 20.7731 10.4347C18.5859 10.0334 16.9071 9.87953 16.6529 10.3645Z" fill="#E0E0E0"/>
<path d="M17.7735 13.9797C17.3788 13.8493 17.4892 14.0399 17.4992 14.361C17.5026 14.5315 17.7501 16.4545 17.7701 16.5849C17.7902 16.7154 17.7969 16.896 18.2049 17.0933C18.6363 17.304 20.5994 18.3206 20.79 18.4143C20.9773 18.5079 21.0341 18.227 20.9773 17.8491C20.9204 17.4712 20.6629 15.4044 20.5894 15.2706C20.5158 15.1369 17.9908 14.0533 17.7735 13.9797Z" fill="white"/>
<path d="M27.6933 13.8926C27.5295 14.0097 27.3054 14.2605 26.7168 14.8023C26.0379 15.4243 25.2855 15.7888 25.3122 16.1935C25.3323 16.548 25.6801 17.2402 26.1449 18.1934C26.5864 19.0963 27.0078 20.0093 27.1449 20.2133C27.4291 20.628 27.9943 20.7618 28.4291 20.4574C28.8638 20.1531 29.3722 19.7786 29.9574 19.0796C30.5427 18.3806 30.7132 17.966 30.6932 17.3807C30.6731 16.7955 28.2485 14.1468 28.1348 13.9963C28.0177 13.8458 27.9007 13.7421 27.6933 13.8926Z" fill="white"/>
<path d="M37.8939 17.2174C38.0477 17.4716 35.9609 17.8361 33.8072 20.759C31.523 23.8558 31.6702 25.4076 31.6534 25.9594C31.63 26.7754 31.4662 27.5446 30.911 27.3707C30.5264 27.2503 30.2589 26.4978 30.7538 24.4177C31.2488 22.3375 32.7036 19.8995 34.3356 18.6588C36.613 16.9231 37.7467 16.9699 37.8939 17.2174Z" fill="#E1E0DF"/>
<path d="M36.1612 21.8724C36.1612 21.8724 36.5324 20.4343 37.4722 19.1234C38.4119 17.8124 39.3049 17.1168 39.6527 17.1436C40.0005 17.167 40.1476 17.4145 40.1476 17.4145L37.5959 22.7252C37.5959 22.7252 37.7866 22.9593 37.9538 23.2335C38.1578 23.5713 37.8434 24.0997 37.8434 24.0997L35.5425 24.695L32.0979 29.8953C32.0979 29.8953 31.5026 29.795 31.5528 29.0793C31.603 28.3603 32.1213 26.9724 32.9641 25.9056C33.8069 24.8388 35.0075 24.3137 35.0075 24.3137L35.1947 23.6047C35.1947 23.6047 34.8436 23.2536 35.071 22.7118C35.3653 22.0095 36.1612 21.8724 36.1612 21.8724Z" fill="#799FAE"/>
<path d="M36.957 22.2098C36.957 22.2098 37.1644 22.3603 37.3149 22.4774C37.4654 22.5944 37.6225 22.7516 37.6225 22.7516C37.6225 22.7516 38.7128 21.4774 39.3281 20.2133C39.8833 19.0729 40.5354 17.6348 40.1508 17.4141C39.7629 17.1934 38.4452 19.0729 37.957 19.9959C37.4654 20.9189 36.957 22.2098 36.957 22.2098Z" fill="white"/>
<path d="M35.0717 22.7151C35.0717 22.7151 35.3493 23.6883 36.1653 23.919C37.1953 24.2066 37.9578 23.2268 37.9578 23.2268C37.9578 23.2268 38.3892 23.8756 38.2086 24.4173C38.018 24.9825 36.9445 25.2367 36.5097 25.2567C36.075 25.2735 35.7339 25.24 35.7339 25.24C35.7339 25.24 35.2623 26.7751 34.4329 27.989C33.7039 29.0525 32.4866 30.2029 32.1053 29.902C31.7241 29.601 32.5802 28.1128 33.1688 27.1964C33.9447 25.9858 35.1586 24.9558 35.1586 24.9558C35.1586 24.9558 34.8677 24.5745 34.8142 24.016C34.7373 23.2502 35.0717 22.7151 35.0717 22.7151Z" fill="white"/>
<path d="M14.3933 12.7521C14.1358 12.6451 13.9218 12.8123 13.9017 13.0965C13.8816 13.3808 13.9987 14.4677 14.0555 14.6316C14.1157 14.8088 16.4434 16.1231 16.6306 16.1231C16.7142 16.1231 16.6206 15.4911 16.5704 14.956C16.5002 14.2068 16.4634 13.6818 16.3798 13.5514C16.323 13.4611 14.6174 12.8457 14.3933 12.7521Z" fill="white"/>
<path d="M4.53126 8.82277C4.33061 8.86291 0.233855 13.4981 0.177002 13.672C0.120149 13.8459 0.554906 14.4278 0.554906 14.4278L2.87918 15.4445L9.70487 10.6822C9.70153 10.6822 4.82222 8.76592 4.53126 8.82277Z" fill="white"/>
<path d="M0.176178 13.6719C0.176178 13.6719 2.49042 14.8157 2.95528 14.7588C3.42014 14.702 9.71408 10.6821 9.71408 10.6821C9.71408 10.6821 10.3462 11.1169 9.97494 11.5985C9.60372 12.0767 3.69437 15.9159 3.01882 15.8725C2.45029 15.8357 0.209621 14.8591 0.0959152 14.5849C-0.141529 13.9963 0.176178 13.6719 0.176178 13.6719Z" fill="white"/>
</svg>
