<svg width="35" height="35" viewBox="0 0 35 35" fill="none" xmlns="http://www.w3.org/2000/svg">
<path d="M33.9942 11.5C33.4944 11.125 32.4946 10.625 30.4952 10.125C29.8703 10 29.2455 9.875 28.4957 9.75C27.4959 9.625 26.4962 9.5 25.1215 9.375H24.9966C24.7466 8.75 24.4967 8.125 24.2468 7.5C24.1218 7.125 23.9968 6.75 23.7469 6.375V6.25C23.247 4.875 22.6222 3.5 21.6225 2.25C20.3728 0.75 18.8732 0 17.3736 0C15.8739 0 14.3743 0.75 13.2496 2.125C12.1249 3.375 11.625 4.875 11.0002 6.25V6.375C10.8752 6.75 10.6253 7.125 10.5003 7.5C10.2504 8.125 10.0005 8.75 9.75053 9.375H9.62556C8.37589 9.5 7.25118 9.625 6.25144 9.75C5.50163 9.875 4.75183 10 4.25196 10.125C2.25248 10.625 1.25274 11.125 0.752865 11.5C0.627897 11.625 0.50293 11.875 0.50293 12.125L0.627897 13.375C0.877833 15.25 1.12777 17.375 1.62764 19.625C2.00254 21.375 2.37744 23.125 3.00228 24.75C3.25222 25.375 3.50215 26 3.75209 26.625C5.75157 30.625 9.37563 33.625 13.8745 34.625C14.9992 34.875 16.1239 35 17.3736 35C18.4983 35 19.7479 34.875 20.8726 34.625C25.3715 33.625 29.1205 30.5 31.12 26.375C31.3699 25.875 31.6199 25.375 31.7448 24.875C33.1195 21.125 33.6193 17.125 34.1192 13.875L34.2442 12.125C34.2442 11.875 34.1192 11.625 33.9942 11.5ZM17.3736 9C15.749 9 14.3743 9 13.1247 9.125C13.2496 9 13.2496 8.75 13.3746 8.625C13.4996 8.25 13.7495 7.875 13.8745 7.5C14.2494 6.625 14.6243 5.75 14.9992 5C15.2491 4.625 15.3741 4.375 15.624 4C15.9989 3.625 16.6238 3 17.4985 3C18.3733 3 18.9981 3.625 19.373 4C19.623 4.25 19.8729 4.625 19.9979 5C20.3728 5.75 20.7477 6.625 21.1226 7.5C21.2476 7.875 21.3725 8.25 21.6225 8.625C21.7474 8.75 21.7474 9 21.8724 9.125C20.3728 9.125 18.9981 9 17.3736 9Z" fill="#1F1F1F"/>
</svg>
