<svg width="45" height="29" viewBox="0 0 45 29" fill="none" xmlns="http://www.w3.org/2000/svg">
<path d="M18.6136 18.5C17.114 18.5 15.9893 17.375 15.9893 15.875V2.625C15.9893 1.125 17.114 0 18.6136 0C20.1132 0 21.2379 1.125 21.2379 2.625V15.75C21.2379 17.25 20.1132 18.5 18.6136 18.5Z" fill="#1F1F1F"/>
<path d="M9.49174 21.1255H2.86846C1.36885 21.1255 0.244141 20.0005 0.244141 18.5005C0.244141 17.0005 1.36885 15.8755 2.86846 15.8755H8.1171V8.00049C8.1171 6.50049 9.24181 5.37549 10.7414 5.37549C12.241 5.37549 13.3657 6.50049 13.3657 8.00049V17.2505C13.3657 19.3755 11.6162 21.1255 9.49174 21.1255Z" fill="#1F1F1F"/>
<path d="M25.2379 26.3745H18.7396C17.2399 26.3745 16.1152 25.2495 16.1152 23.7495C16.1152 22.2495 17.2399 21.1245 18.7396 21.1245H23.9882V13.2495C23.9882 11.7495 25.1129 10.6245 26.6125 10.6245C28.1121 10.6245 29.2368 11.7495 29.2368 13.2495V22.4995C29.1119 24.6245 27.3623 26.3745 25.2379 26.3745Z" fill="#1F1F1F"/>
<path d="M42.2336 21.124H35.7353C33.4859 21.124 31.7363 19.374 31.7363 17.124V5.37402C31.7363 3.87402 32.861 2.74902 34.3606 2.74902C35.8603 2.74902 36.985 3.87402 36.985 5.37402V15.874H42.2336C43.7332 15.874 44.8579 16.999 44.8579 18.499C44.8579 19.874 43.7332 21.124 42.2336 21.124Z" fill="#1F1F1F"/>
<path d="M26.4876 7.99902C27.937 7.99902 29.1119 6.82377 29.1119 5.37402C29.1119 3.92428 27.937 2.74902 26.4876 2.74902C25.0382 2.74902 23.8633 3.92428 23.8633 5.37402C23.8633 6.82377 25.0382 7.99902 26.4876 7.99902Z" fill="#1F1F1F"/>
<path d="M34.3606 29C35.81 29 36.985 27.8247 36.985 26.375C36.985 24.9253 35.81 23.75 34.3606 23.75C32.9113 23.75 31.7363 24.9253 31.7363 26.375C31.7363 27.8247 32.9113 29 34.3606 29Z" fill="#1F1F1F"/>
</svg>
