<svg width="37" height="37" viewBox="0 0 37 37" fill="none" xmlns="http://www.w3.org/2000/svg">
<path d="M6.60586 31.1839C5.60897 30.5955 4.28064 29.501 4.31918 27.6614C4.35258 26.0992 6.56219 23.6147 12.2275 22.6641C17.8928 21.7134 21.0197 22.1656 23.5582 22.438C26.0966 22.7103 27.6819 23.5248 27.6819 23.5248L25.3695 28.1932L6.60586 31.1839Z" fill="#04C1EA"/>
<path d="M16.6541 26.9161L11.4461 28.2984L7.27357 30.1406C7.27357 30.1406 6.75457 31.2351 7.01407 31.5229C7.27357 31.8107 11.1018 33.9997 17.89 34.0254C25.4026 34.0537 29.3979 32.0984 30.7802 31.0913C32.1625 30.0841 28.0464 24.3006 28.0464 24.3006L24.6113 22.8875L20.7085 23.2651L18.4064 24.4162L16.6541 26.9161Z" fill="#F5C876"/>
<path d="M20.043 26.4461L25.8625 26.1377C25.8625 26.1377 25.102 24.6784 24.8219 24.0232C24.5033 23.2781 24.4442 22.849 24.4442 22.849C24.4442 22.849 25.1277 22.6589 26.2941 22.9544C27.4606 23.2498 31.6075 24.5807 32.6224 27.1449C33.5062 29.3802 30.7622 31.1094 30.7622 31.1094C30.7622 31.1094 28.9123 29.8478 28.2211 29.1875C27.1394 28.1547 26.5536 27.2888 26.5536 27.2888L19.9814 27.52L19.5908 27.2605L20.043 26.4461Z" fill="#F2A159"/>
<path d="M7.53581 27.3762C6.80098 28.1111 7.65142 29.0155 7.65142 29.0155C7.65142 29.0155 5.98394 29.3906 6.04047 30.3669C6.06873 30.8551 6.73161 31.4306 7.01937 31.518C7.30714 31.6053 7.25061 31.0452 7.65142 30.6547C8.68686 29.6475 11.8805 29.4163 14.0953 29.1876C16.31 28.9589 17.2195 28.1933 17.6332 27.9209C18.7277 27.2015 18.3243 25.1641 19.5165 24.2571C21.4332 22.7977 25.8164 22.9981 25.7856 22.8363C25.7548 22.6744 22.1526 21.8651 18.851 23.2011C16.644 24.0952 16.6851 25.9631 15.1333 26.4821C13.5814 27.0011 8.71512 26.1969 7.53581 27.3762Z" fill="#DCECF6"/>
<path d="M10.6343 28.0698C10.1692 28.2394 10.6086 28.7301 10.8244 28.8535C11.2561 29.1001 11.8393 29.3596 11.8393 29.3596C11.8393 29.3596 10.6137 30.2897 10.9529 30.7753C11.2021 31.1324 13.5093 30.246 13.5093 30.246C13.5325 30.246 14.9327 31.3894 15.5288 31.3919C15.9733 31.3945 15.6727 29.7347 15.6727 29.7347C15.6727 29.7347 17.5457 29.3365 17.5457 28.7661C17.5457 28.3216 16.6156 28.4501 16.6156 28.4501C16.6156 28.4501 11.0993 27.9002 10.6343 28.0698Z" fill="#EE594A"/>
<path d="M14.6038 26.9291C14.1182 26.8854 13.2241 27.89 13.2241 27.89C13.2241 27.89 10.5906 27.7102 10.5469 28.1547C10.5032 28.5992 11.942 28.7893 11.942 29.0411C11.942 29.2929 10.7807 30.223 10.886 30.5184C10.9914 30.8139 13.2909 29.483 13.463 29.5472C13.6352 29.6115 15.3772 31.2944 15.6881 31.0066C15.9553 30.76 15.6804 29.3134 15.6804 29.3134C15.6804 29.3134 17.4557 28.8921 17.4326 28.5735C17.4121 28.2575 15.1948 28.0236 15.1948 28.0236C15.1948 28.0236 15.0689 26.9702 14.6038 26.9291Z" fill="#F79228"/>
<path d="M17.8852 6.63667L16.6699 6.54932L17.9083 15.6087C17.9083 15.6087 19.1493 25.8166 19.2341 26.4281C19.342 27.2091 19.5347 27.6254 20.2233 27.52C20.9119 27.4147 20.8425 26.7389 20.7988 26.2122C20.7551 25.6855 19.6529 16.1071 19.6529 16.1071L17.8852 6.63667Z" fill="#4EA4B0"/>
<path d="M16.8909 5.09771C16.8909 5.09771 11.0251 5.74004 7.24825 9.93315C4.20105 13.3169 3.70518 16.3564 3.921 16.3898C4.28327 16.4464 5.20565 16.138 6.21282 16.5568C7.21999 16.9756 7.80579 17.8415 8.14237 17.8415C8.47895 17.8415 9.70708 17.0039 11.4414 17.2557C13.1731 17.5075 14.3473 18.5403 14.7121 18.5403C15.0769 18.5403 16.5286 17.451 18.7639 17.3379C20.8039 17.2351 22.1734 17.7284 22.4534 17.7002C22.7335 17.6719 23.2782 15.9428 25.4313 15.3004C27.5843 14.6581 28.296 15.1848 28.6043 15.1848C28.9127 15.1848 29.0797 13.6766 30.6161 13.0883C32.1526 12.5025 32.7409 12.7517 33.0749 12.6977C33.409 12.6438 31.8442 8.90029 26.2971 6.36438C21.7109 4.27039 16.8909 5.09771 16.8909 5.09771Z" fill="#EE5948"/>
<path d="M17.1602 5.52148C17.1602 5.52148 13.3422 6.66483 10.6856 10.8297C8.51192 14.2366 8.47852 16.7545 8.61726 16.8932C8.756 17.032 10.0432 16.3897 11.6079 16.531C13.1726 16.6697 14.4933 17.8336 14.5703 17.5664C14.668 17.2273 14.6372 14.2212 14.9917 11.6904C15.652 6.95516 17.1936 5.92487 17.1936 5.92487C17.1936 5.92487 19.2491 7.30202 20.8086 11.1894C21.7875 13.6277 22.2731 16.1327 22.4761 16.4513C22.566 16.5926 23.4113 15.2977 25.1687 14.7273C26.7951 14.198 28.2159 14.6066 28.4112 14.4961C28.6065 14.383 26.7823 10.4263 23.7376 8.14989C20.2999 5.57287 17.1602 5.52148 17.1602 5.52148Z" fill="#FEFEFE"/>
<path d="M16.8141 3.06026C16.0638 3.16304 16.3028 4.26013 16.3593 4.90503C16.385 5.19022 16.4467 6.28475 17.1995 6.22565C17.8264 6.17684 17.739 5.34181 17.6825 4.72775C17.6285 4.11111 17.6028 2.95235 16.8141 3.06026Z" fill="#4EA4B0"/>
</svg>
