<svg width="37" height="37" viewBox="0 0 37 37" fill="none" xmlns="http://www.w3.org/2000/svg">
<path d="M21.1414 14.7485L18.8486 14.771L20.8089 13.7024L20.3451 12.0474L21.6465 13.0349L22.9554 12.0337L22.6116 13.3811L24.7694 13.6286L22.5241 14.5036L21.629 16.066L21.1414 14.7485Z" fill="#FFE36C"/>
<path d="M22.5346 12.6712L22.4396 13.0412L22.2983 13.5975L22.8684 13.6626L23.736 13.7613L22.5158 14.2376L22.3508 14.3014L22.2633 14.4552L21.6782 15.4765L21.4382 14.8265L21.3157 14.4952L20.9631 14.5002L19.8492 14.5114L20.7543 14.0176L21.1044 13.8263L20.9969 13.4425L20.7881 12.6974L21.3432 13.1187L21.647 13.3488L21.9495 13.1175L22.5346 12.6712ZM21.6457 12.7199L20.0618 11.5185C20.0105 11.4798 19.9392 11.5285 19.9568 11.5898L20.5143 13.5788L18.084 14.904C18.0228 14.9377 18.0465 15.0302 18.1165 15.029L20.9681 15.0002L21.5307 16.5217C21.5507 16.5754 21.6232 16.5804 21.652 16.5317L22.6983 14.7039L25.5512 13.5913C25.6162 13.5663 25.6037 13.47 25.5349 13.4625L22.9259 13.165L23.3284 11.5835C23.3447 11.5223 23.2734 11.4748 23.2234 11.5135L21.6457 12.7199Z" fill="#FF8F00"/>
<path d="M22.8248 16.537C22.666 16.5145 21.8747 17.3034 21.3034 16.8083L21.3021 16.8095C20.9733 16.5433 20.6108 16.3107 20.212 16.1207C17.4929 14.8243 14.2362 15.9769 12.9386 18.6973C11.6422 21.4164 12.7948 24.673 15.5151 25.9707C18.2342 27.2671 21.4909 26.1145 22.7886 23.3941C23.2099 22.5115 23.3724 21.5726 23.3061 20.6625C23.3011 20.5988 23.2899 20.4575 23.3211 20.3525C23.5349 19.6349 24.3125 19.2774 24.2962 19.2436C24.28 19.2086 22.9848 16.5595 22.8248 16.537Z" fill="#4D4D4D"/>
<path d="M24.3273 19.2255C24.6761 19.0247 24.6147 18.264 24.1901 17.5263C23.7656 16.7885 23.1386 16.3532 22.7898 16.554C22.441 16.7547 22.5024 17.5155 22.9269 18.2532C23.3515 18.9909 23.9785 19.4262 24.3273 19.2255Z" fill="#757575"/>
<path d="M24.015 18.2688C24.1519 18.1898 24.1644 17.9551 24.0429 17.7447C23.9214 17.5343 23.7119 17.4277 23.575 17.5068C23.4381 17.5858 23.4256 17.8205 23.5471 18.0309C23.6686 18.2414 23.8781 18.3479 24.015 18.2688Z" fill="#212121"/>
<path opacity="0.9" d="M17.7369 17.5719C18.0794 18.5443 17.5782 19.1243 16.9295 19.4955C16.6195 19.673 16.2595 19.7505 15.9458 19.9217C15.3358 20.2542 14.9658 20.8954 14.4346 21.3417C14.3021 21.4529 14.1509 21.5554 13.9784 21.5741C13.7484 21.5991 13.5234 21.4641 13.3859 21.2779C13.2497 21.0904 12.6909 19.313 14.7308 17.4944C15.642 16.6819 17.3619 16.5057 17.7369 17.5719Z" fill="#757575"/>
<path d="M23.7671 16.9556C23.7608 16.9494 23.7546 16.9419 23.7483 16.9356C23.7471 16.9344 23.7471 16.9331 23.7458 16.9331C23.7171 16.9044 23.6883 16.8769 23.6596 16.8494C23.6558 16.8456 23.6508 16.8419 23.6471 16.8369C23.3309 16.5506 23.0071 16.4294 22.7896 16.5531C22.4409 16.7531 22.5022 17.5143 22.9271 18.2518C23.0184 18.4093 23.1184 18.553 23.2234 18.6805C23.2109 18.6443 22.7434 17.2406 23.0346 16.8644C23.2834 16.5469 23.7233 16.9181 23.7671 16.9556Z" fill="url(#paint0_linear_467_1373)"/>
<path d="M22.0213 20.3169C21.7188 20.1182 21.4225 19.8482 21.2388 19.1695C21.2151 19.0832 21.1351 18.6545 21.3663 18.5858C21.5663 18.5258 21.715 18.8545 21.8875 19.1432C22.075 19.4595 22.3787 19.7332 22.705 19.9119C22.8 19.9632 23.2412 20.1619 22.9512 20.4394C22.76 20.6207 22.1987 20.4344 22.0213 20.3169Z" fill="#212121"/>
<path d="M16.2324 15.8403C16.6936 15.8553 17.6361 15.8615 18.8285 16.3302C19.2298 16.4877 19.5685 16.7077 19.9322 16.9327C20.226 17.1139 20.5597 17.2652 20.9034 17.2327C21.0247 17.2214 21.1584 17.1739 21.2059 17.0614C21.2347 16.9914 21.2322 16.9202 21.2072 16.8502C21.1772 16.7677 21.0747 16.6527 20.9172 16.524C20.6959 16.3752 20.4609 16.239 20.2122 16.1202C18.9173 15.5028 17.5011 15.4415 16.2324 15.8403Z" fill="url(#paint1_linear_467_1373)"/>
<path d="M23.6069 17.6798C23.6194 17.6748 24.8881 17.0986 24.7781 16.2624C24.7056 15.7099 24.4906 15.4349 23.3532 15.1649C22.2408 14.9012 21.697 14.385 21.6745 14.3625C21.5633 14.255 21.5595 14.0763 21.6683 13.9638C21.7758 13.8525 21.9533 13.8488 22.0658 13.9563C22.0745 13.9638 22.537 14.3912 23.4844 14.6162C24.5869 14.8775 25.2081 15.2062 25.3381 16.1874C25.4831 17.2848 24.2731 17.9686 23.9269 18.1498C23.7119 18.2635 23.4644 17.7423 23.6069 17.6798Z" fill="#C69461"/>
<path d="M22.0633 13.9577C21.9521 13.8502 21.7733 13.854 21.6658 13.9652C21.5584 14.0777 21.5609 14.2552 21.6721 14.364C21.6883 14.3802 21.9846 14.6602 22.5783 14.9127L22.697 14.7052L23.1545 14.5264C22.4283 14.294 22.0708 13.964 22.0633 13.9577Z" fill="#F6BC41"/>
<defs>
<linearGradient id="paint0_linear_467_1373" x1="23.7544" y1="18.1633" x2="22.3933" y2="16.3676" gradientUnits="userSpaceOnUse">
<stop offset="0.1096" stop-color="#FFF9C4" stop-opacity="0"/>
<stop offset="1" stop-color="#FFFF8D"/>
</linearGradient>
<linearGradient id="paint1_linear_467_1373" x1="16.2598" y1="15.3193" x2="21.4762" y2="17.008" gradientUnits="userSpaceOnUse">
<stop stop-color="#FFF9C4" stop-opacity="0.1"/>
<stop offset="0.00151662" stop-color="#FFF9C4" stop-opacity="0.1007"/>
<stop offset="0.3781" stop-color="#FFFCA6" stop-opacity="0.2626"/>
<stop offset="0.7007" stop-color="#FFFE94" stop-opacity="0.4014"/>
<stop offset="0.93" stop-color="#FFFF8D" stop-opacity="0.5"/>
</linearGradient>
</defs>
</svg>
