<svg width="49" height="37" viewBox="0 0 49 37" fill="none" xmlns="http://www.w3.org/2000/svg">
<path d="M31.9742 11.8423L25.9277 30.7743L29.2997 31.608L36.5336 31.169L36.1832 18.9435L31.9742 11.8423Z" fill="#2F2F2F"/>
<path d="M14.8833 5.79251C14.4341 6.12936 13.3487 10.0015 10.7185 15.3028C8.08827 20.604 4.71289 27.6202 4.71289 27.6202C4.71289 27.6202 5.10759 28.1884 10.1026 29.9884C15.0976 31.7884 19.225 32.5778 19.225 32.5778C19.225 32.5778 30.3515 15.2585 30.4399 14.8672C30.5284 14.4725 32.3046 7.25222 32.3046 7.25222C32.3046 7.25222 25.2238 6.75884 22.1546 6.49684C19.0855 6.23484 15.4073 5.39781 14.8833 5.79251Z" fill="#F19F40"/>
<path d="M40.2867 31.1317L44.0227 30.4954C44.0227 30.4954 40.5759 23.2853 38.6909 19.6479C36.8058 16.0105 33.5529 8.29005 33.2467 7.72182C32.9405 7.15359 31.6679 6.88818 31.0997 7.89876C30.5314 8.90933 25.7882 19.3179 24.8967 20.9817C23.893 22.8532 18.9048 32.0708 18.8605 32.554C18.8163 33.0371 27.2581 32.2375 27.2581 32.2375L29.4358 25.8236L32.066 14.4283L32.5049 14.5168L34.6077 23.8093L40.2867 31.1317Z" fill="#EC5F32"/>
<path d="M29.715 31.9346C29.6401 32.377 27.4148 32.7615 26.1491 32.7887C24.8799 32.8193 22.6104 32.9078 22.345 32.6118C22.0796 32.3157 25.2032 29.546 27.2107 25.9188C29.2148 22.2917 30.3955 19.7874 30.6881 18.7836C30.9842 17.7798 31.5728 14.7753 31.8076 14.2717C32.0424 13.7682 32.5153 13.86 32.6616 14.3296C32.808 14.8026 34.3425 20.6108 34.8733 21.9956C35.4041 23.3805 37.5852 26.2693 38.2351 27.1846C38.885 28.0999 42.0971 30.5362 42.1549 30.7709C42.2127 31.0057 40.1678 31.7237 38.7761 31.8836C37.7792 31.9959 35.4552 31.8223 35.2782 31.5263C35.1013 31.2303 33.9002 23.3805 33.4579 20.7571C33.0155 18.1337 32.2499 14.6256 32.2499 14.6256C32.2499 14.6256 30.5112 23.0573 30.273 25.2996C30.0382 27.5419 29.8307 31.2269 29.715 31.9346Z" fill="#9C2D1B"/>
<path d="M4.15137 24.2449C4.15137 24.2449 4.39976 23.9863 4.86932 23.9557C5.33887 23.9285 5.75399 24.2143 5.75399 24.2143L6.05682 28.5764C6.05682 28.5764 5.69615 28.8929 5.25381 28.8929C4.81147 28.8929 4.39635 28.6615 4.39635 28.6615L4.15137 24.2449Z" fill="#9C2D1B"/>
<path d="M16.8291 28.6309C16.8291 28.6309 17.2136 28.3076 17.8022 28.3076C18.3909 28.3076 18.8332 28.6036 18.8332 28.6036L18.8639 33.027C18.8639 33.027 18.3909 33.2924 18.037 33.2924C17.6832 33.2924 17.1217 33.1155 17.1217 33.1155L16.8291 28.6309Z" fill="#9C2D1B"/>
<path d="M43.2131 26.6879C43.2131 26.6879 43.5295 26.3204 44.091 26.3476C44.6524 26.3749 44.9586 26.5688 44.9586 26.5688L44.6932 31.1079C44.6932 31.1079 44.4857 31.4039 43.9855 31.4039C43.4853 31.4039 43.043 31.1691 43.043 31.1691L43.2131 26.6879Z" fill="#9C2D1B"/>
</svg>
