<svg width="46" height="47" viewBox="0 0 46 47" fill="none" xmlns="http://www.w3.org/2000/svg">
<path d="M22.9982 46.0632C35.6098 46.0632 45.8334 35.8395 45.8334 23.228C45.8334 10.6165 35.6098 0.392822 22.9982 0.392822C10.3867 0.392822 0.163086 10.6165 0.163086 23.228C0.163086 35.8395 10.3867 46.0632 22.9982 46.0632Z" fill="#C5BBFF"/>
<path d="M22.9991 41.5491C33.1178 41.5491 41.3206 33.3463 41.3206 23.2277C41.3206 13.109 33.1178 4.90625 22.9991 4.90625C12.8805 4.90625 4.67773 13.109 4.67773 23.2277C4.67773 33.3463 12.8805 41.5491 22.9991 41.5491Z" fill="#FCEBCD"/>
<path d="M17.7832 4.60173C15.3399 5.30962 11.9184 6.39429 8.25715 10.7672C4.64159 15.0945 3.89564 20.122 3.66348 23.5892C3.66348 23.5892 1.57406 26.2038 1.47511 25.7167C0.687297 21.9298 2.27815 13.4656 6.43795 8.98989C11.279 3.78347 17.5739 1.93762 19.8498 1.59129C20.2418 1.5304 18.5254 4.3886 17.7832 4.60173Z" fill="#5264FF"/>
<path d="M22.9994 40.5793C32.582 40.5793 40.3503 32.811 40.3503 23.2284C40.3503 13.6457 32.582 5.87744 22.9994 5.87744C13.4167 5.87744 5.64844 13.6457 5.64844 23.2284C5.64844 32.811 13.4167 40.5793 22.9994 40.5793Z" fill="white"/>
<path fill-rule="evenodd" clip-rule="evenodd" d="M22.9964 22.4666C23.4167 22.4666 23.7574 22.8073 23.7574 23.2276V34.2626C23.7574 34.6829 23.4167 35.0237 22.9964 35.0237C22.5761 35.0237 22.2354 34.6829 22.2354 34.2626V23.2276C22.2354 22.8073 22.5761 22.4666 22.9964 22.4666Z" fill="#563428"/>
<path d="M22.9977 25.1536C24.0611 25.1536 24.9231 24.2915 24.9231 23.2282C24.9231 22.1648 24.0611 21.3027 22.9977 21.3027C21.9343 21.3027 21.0723 22.1648 21.0723 23.2282C21.0723 24.2915 21.9343 25.1536 22.9977 25.1536Z" fill="#563428"/>
<path fill-rule="evenodd" clip-rule="evenodd" d="M22.1842 22.4262C22.6269 21.9773 23.3496 21.9722 23.7986 22.4149L29.552 28.0884C30.0009 28.5311 30.006 29.2539 29.5633 29.7028C29.1206 30.1517 28.3978 30.1568 27.9489 29.7141L22.1955 24.0406C21.7466 23.5979 21.7415 22.8751 22.1842 22.4262Z" fill="#563428"/>
<path fill-rule="evenodd" clip-rule="evenodd" d="M22.0469 38.8312V36.9294H23.9487V38.8312H22.0469Z" fill="#6596A3"/>
<path fill-rule="evenodd" clip-rule="evenodd" d="M22.0469 9.52656V7.62476H23.9487V9.52656H22.0469Z" fill="#6596A3"/>
<path fill-rule="evenodd" clip-rule="evenodd" d="M22.0469 38.8312V36.9294H23.9487V38.8312H22.0469Z" fill="#6596A3"/>
<path fill-rule="evenodd" clip-rule="evenodd" d="M22.0469 9.52656V7.62476H23.9487V9.52656H22.0469Z" fill="#6596A3"/>
<path fill-rule="evenodd" clip-rule="evenodd" d="M7.39551 22.2764H9.29731V24.1782H7.39551V22.2764Z" fill="#6596A3"/>
<path fill-rule="evenodd" clip-rule="evenodd" d="M36.7002 22.2764H38.602V24.1782H36.7002V22.2764Z" fill="#6596A3"/>
<path fill-rule="evenodd" clip-rule="evenodd" d="M7.39551 22.2764H9.29731V24.1782H7.39551V22.2764Z" fill="#6596A3"/>
<path fill-rule="evenodd" clip-rule="evenodd" d="M36.7002 22.2764H38.602V24.1782H36.7002V22.2764Z" fill="#6596A3"/>
<path fill-rule="evenodd" clip-rule="evenodd" d="M14.7031 36.4573L15.654 34.8103L16.6422 35.3809L15.6913 37.0278L14.7031 36.4573Z" fill="#B0BEC5"/>
<path fill-rule="evenodd" clip-rule="evenodd" d="M29.3555 11.0754L30.3064 9.42847L31.2946 9.99902L30.3437 11.646L29.3555 11.0754Z" fill="#B0BEC5"/>
<path fill-rule="evenodd" clip-rule="evenodd" d="M14.7031 36.4573L15.654 34.8103L16.6422 35.3809L15.6913 37.0278L14.7031 36.4573Z" fill="#B0BEC5"/>
<path fill-rule="evenodd" clip-rule="evenodd" d="M29.3555 11.0754L30.3064 9.42847L31.2946 9.99902L30.3437 11.646L29.3555 11.0754Z" fill="#B0BEC5"/>
<path fill-rule="evenodd" clip-rule="evenodd" d="M30.3064 37.0278L29.3555 35.3809L30.3437 34.8103L31.2946 36.4573L30.3064 37.0278Z" fill="#B0BEC5"/>
<path fill-rule="evenodd" clip-rule="evenodd" d="M15.654 11.646L14.7031 9.99902L15.6913 9.42847L16.6422 11.0754L15.654 11.646Z" fill="#B0BEC5"/>
<path fill-rule="evenodd" clip-rule="evenodd" d="M30.3064 37.0278L29.3555 35.3809L30.3437 34.8103L31.2946 36.4573L30.3064 37.0278Z" fill="#B0BEC5"/>
<path fill-rule="evenodd" clip-rule="evenodd" d="M15.654 11.646L14.7031 9.99902L15.6913 9.42847L16.6422 11.0754L15.654 11.646Z" fill="#B0BEC5"/>
<path fill-rule="evenodd" clip-rule="evenodd" d="M36.2261 31.5245L34.5791 30.5736L35.1497 29.5854L36.7966 30.5364L36.2261 31.5245Z" fill="#B0BEC5"/>
<path fill-rule="evenodd" clip-rule="evenodd" d="M10.8452 16.8712L9.19824 15.9203L9.7688 14.9321L11.4158 15.883L10.8452 16.8712Z" fill="#B0BEC5"/>
<path fill-rule="evenodd" clip-rule="evenodd" d="M36.2261 31.5245L34.5791 30.5736L35.1497 29.5854L36.7966 30.5364L36.2261 31.5245Z" fill="#B0BEC5"/>
<path fill-rule="evenodd" clip-rule="evenodd" d="M10.8452 16.8712L9.19824 15.9203L9.7688 14.9321L11.4158 15.883L10.8452 16.8712Z" fill="#B0BEC5"/>
<path fill-rule="evenodd" clip-rule="evenodd" d="M9.19824 30.5364L10.8452 29.5854L11.4158 30.5736L9.7688 31.5245L9.19824 30.5364Z" fill="#B0BEC5"/>
<path fill-rule="evenodd" clip-rule="evenodd" d="M34.5791 15.883L36.2261 14.9321L36.7966 15.9203L35.1497 16.8712L34.5791 15.883Z" fill="#B0BEC5"/>
<path fill-rule="evenodd" clip-rule="evenodd" d="M9.19824 30.5364L10.8452 29.5854L11.4158 30.5736L9.7688 31.5245L9.19824 30.5364Z" fill="#B0BEC5"/>
<path fill-rule="evenodd" clip-rule="evenodd" d="M34.5791 15.883L36.2261 14.9321L36.7966 15.9203L35.1497 16.8712L34.5791 15.883Z" fill="#B0BEC5"/>
</svg>
