<svg width="21" height="20" viewBox="0 0 21 20" fill="none" xmlns="http://www.w3.org/2000/svg">
<g clip-path="url(#clip0_621_5387)">
<path d="M8.42495 7.22852H12.5355M10.4802 5.17323V9.2838M7.19178 12.5723H13.7687M7.19178 15.0386H13.7687M6.53409 18.3271H14.4264C15.3473 18.3271 15.8077 18.3271 16.1594 18.1479C16.4688 17.9902 16.7203 17.7387 16.878 17.4293C17.0572 17.0776 17.0572 16.6172 17.0572 15.6963V4.51553C17.0572 3.59468 17.0572 3.13425 16.878 2.78253C16.7203 2.47315 16.4688 2.22161 16.1594 2.06398C15.8077 1.88477 15.3473 1.88477 14.4264 1.88477H6.53409C5.61323 1.88477 5.15281 1.88477 4.80109 2.06398C4.4917 2.22161 4.24017 2.47315 4.08253 2.78253C3.90332 3.13425 3.90332 3.59468 3.90332 4.51554V15.6963C3.90332 16.6172 3.90332 17.0776 4.08253 17.4293C4.24017 17.7387 4.4917 17.9902 4.80109 18.1479C5.15281 18.3271 5.61323 18.3271 6.53409 18.3271Z" stroke="#404040" stroke-width="1.64423" stroke-linecap="round"/>
</g>
<defs>
<clipPath id="clip0_621_5387">
<rect width="19.7308" height="19.7308" fill="white" transform="translate(0.615234 0.240479)"/>
</clipPath>
</defs>
</svg>
