<svg width="38" height="38" viewBox="0 0 38 38" fill="none" xmlns="http://www.w3.org/2000/svg">
<path d="M20.2159 17.7882L20.0857 9.40846C20.0857 9.40846 19.919 4.16134 19.919 3.7447C19.919 3.32805 19.8357 2.96609 19.6065 2.94526C19.3774 2.92443 19.1508 3.0963 19.13 3.66137C19.1092 4.22644 18.9998 9.24441 18.9998 9.24441C18.9998 9.24441 18.2993 9.2392 18.2863 9.34076C18.2576 9.54908 18.1222 13.7676 17.9764 15.3561C17.8306 16.9445 17.229 21.0198 16.4765 23.0093C16.1015 23.9988 15.2526 26.0066 14.4219 27.4284C13.586 28.8632 12.4949 30.3839 11.8413 31.2979C10.5393 33.1182 9.78934 33.7666 10.0029 33.9723C10.1018 34.0686 12.7006 34.0165 12.7006 34.0165C12.7006 34.0165 14.3646 31.7146 14.7682 31.1183C15.3125 30.3136 15.9843 29.798 16.8228 29.9282C17.4009 30.0194 17.8853 30.4308 18.005 31.3656C18.1639 32.5791 18.2108 34.6103 18.3592 34.7248C18.5857 34.9045 20.1794 34.9019 20.1794 34.9019L20.2159 17.7882ZM18.4217 28.8866C18.1639 29.0064 17.591 28.6601 17.0025 28.5845C16.414 28.509 15.9765 28.7512 15.6744 28.4648C15.3724 28.1783 15.7942 27.4075 16.1718 26.6836C16.5494 25.9597 17.3645 24.6316 17.7863 24.7228C18.2368 24.8191 18.3904 25.9909 18.5259 26.9857C18.604 27.5533 18.6769 28.7642 18.4217 28.8866ZM17.8931 24.103C17.7577 24.0874 17.354 23.0874 17.4712 22.9703C17.591 22.8505 18.5884 22.9546 18.6482 23.09C18.7081 23.2254 18.0285 24.1186 17.8931 24.103ZM18.1795 22.2906C17.7863 22.275 17.6249 22.0328 17.6509 21.8089C17.6952 21.4313 17.9556 21.3245 18.2707 21.387C18.6014 21.4521 18.6951 21.6448 18.7081 21.8687C18.7238 22.1109 18.5727 22.3062 18.1795 22.2906Z" fill="#FF2C5C"/>
<path d="M16.4404 25.8684L18.1304 29.1599L18.7632 28.738L16.779 24.9387C16.7816 24.9387 16.5732 25.6027 16.4404 25.8684Z" fill="#FF2C5C"/>
<path d="M18.4504 25.4443L15.2969 28.4338L15.8099 28.8712L18.7238 26.2308L18.4504 25.4443Z" fill="#FF2C5C"/>
<path d="M19.7198 18.9705C19.7198 18.9705 16.1549 18.9887 16.0039 18.9887C15.8528 18.9887 15.5716 19.2074 15.9127 19.6996C16.1549 20.0485 16.8814 20.9469 17.0168 20.9808C17.1522 21.0146 19.7927 20.9808 19.7927 20.9808L19.7198 18.9705Z" fill="#C9C7CA"/>
<path d="M19.5829 14.5201L18.0361 14.4915C18.0361 14.4915 18.0127 15.0018 17.9528 15.5747C17.9085 16.0018 17.8018 16.7075 17.8018 16.7075L19.885 16.7231L19.5829 14.5201Z" fill="#E3E1DF"/>
<path d="M19.5833 9.97852L18.2526 10.0046C18.2526 10.0046 18.2135 10.8352 18.1979 11.1087C18.1823 11.3795 18.1641 12.0774 18.1641 12.0774H19.7343L19.5833 9.97852Z" fill="#E3E1DF"/>
<path d="M29.2872 33.493C29.1727 33.355 27.9488 31.8655 26.8915 30.3395C25.8343 28.8136 24.8031 27.2121 24.2172 26.0846C23.0428 23.8269 22.6548 22.4598 22.0272 20.0406C21.7043 18.7959 21.3345 17.4053 21.0481 13.5357C20.7825 9.94218 20.9439 9.30941 20.7981 9.29639C20.6783 9.28336 19.5039 9.25732 19.5039 9.25732C19.5039 9.25732 19.5482 13.8274 19.5846 17.8298C19.6211 21.7489 19.7956 34.8966 19.7956 34.8966C19.7956 34.8966 19.9857 34.9044 20.2382 34.9044C20.6966 34.9018 21.3606 34.881 21.4413 34.8055C21.5819 34.67 21.5923 32.0895 21.6626 31.1051C21.7408 30.0062 22.9256 29.2641 24.1209 30.376C25.4567 31.6207 26.7822 34.0034 26.9436 34.1206C27.1467 34.2664 29.2221 34.144 29.4773 34.144C29.7247 34.1362 29.5164 33.7691 29.2872 33.493ZM20.9075 21.3452C21.2148 21.2593 21.5559 21.3947 21.6132 21.6343C21.6679 21.8738 21.6262 22.1863 21.1731 22.2384C20.8059 22.2801 20.6106 22.1759 20.5637 21.8765C20.5195 21.5926 20.6861 21.4077 20.9075 21.3452ZM20.707 23.103C20.7825 22.9207 21.6861 22.7618 21.8033 22.9311C21.9204 23.1003 21.7017 24.0743 21.4413 24.0873C21.1809 24.0977 20.6497 23.2384 20.707 23.103ZM23.824 28.3995C23.5896 28.6339 23.3475 28.5115 22.4777 28.6782C21.608 28.8448 21.3762 29.0844 21.0585 29.0323C20.7408 28.9828 20.7773 28.2772 20.8606 27.0402C20.9439 25.8033 21.2226 24.7852 21.6288 24.7122C22.1782 24.6159 22.7668 25.8372 23.1001 26.4543C23.4334 27.0715 24.0584 28.1652 23.824 28.3995Z" fill="#5264FF"/>
<path d="M22.7623 25.0664L20.7207 29.2667L21.6087 29.2823L23.2961 25.6367L22.7623 25.0664Z" fill="#5264FF"/>
<path d="M20.8721 25.2175L24.3693 28.6288L23.4813 28.7642L20.5361 25.9857L20.8721 25.2175Z" fill="#5264FF"/>
<path d="M19.5957 18.9707C19.5957 18.9707 22.632 18.9629 22.9289 18.9629C23.2335 18.9629 23.3663 19.1426 23.2674 19.3691C23.1684 19.5931 22.3872 20.718 22.27 20.9159C22.2362 20.9732 19.6165 20.981 19.6165 20.981L19.5957 18.9707Z" fill="#AFB1B0"/>
<path d="M19.5508 14.5125L21.1288 14.5281C21.1288 14.5281 21.2069 15.3041 21.233 15.5619C21.2825 16.0358 21.3658 16.7076 21.3658 16.7076L19.5638 16.7181L19.5508 14.5125Z" fill="#C9C7CA"/>
<path d="M19.5107 9.98145L20.8779 9.98405L20.9534 12.0516L19.5186 12.0829L19.5107 9.98145Z" fill="#C9C7CA"/>
<path d="M19.043 6.93477H20.0247L19.9492 4.60938H19.0898L19.043 6.93477Z" fill="#C9C7CA"/>
</svg>
