<svg width="21" height="37" viewBox="0 0 21 37" fill="none" xmlns="http://www.w3.org/2000/svg">
<path d="M9.58671 0.388683C9.11685 0.391657 8.87598 0.439237 8.87598 1.50682C8.87598 2.57441 8.97709 35.3692 8.97709 35.7261C8.97709 36.083 9.33394 36.2346 9.94356 36.2346C10.5532 36.2346 12.0282 36.2346 12.4356 36.2346C12.843 36.2346 12.9947 35.9818 12.9441 35.3187C12.8936 34.6585 12.8876 1.55738 12.8876 1.15294C12.8876 0.74851 12.7032 0.430316 12.052 0.406526C11.5226 0.391657 10.1458 0.385709 9.58671 0.388683Z" fill="white"/>
<path d="M5.30975 12.3641C5.30975 12.3641 5.23541 10.5025 6.54982 9.29815C7.76015 8.18893 8.89018 8.27219 8.89018 8.27219L8.90208 10.1189C8.90208 10.1189 9.59199 9.88101 10.7577 9.92859C11.9234 9.97617 12.884 10.3836 12.884 10.3836V8.44467C12.884 8.44467 13.5293 8.41494 14.5047 9.56281C14.9924 10.1368 15.3938 11.3322 15.5277 11.9567C15.6972 12.7596 15.9916 13.1313 16.7677 13.1879C17.5439 13.2444 18.1327 13.2384 18.6115 13.2206C19.2925 13.1968 17.1573 9.48847 17.1573 9.48847C17.1573 9.48847 14.7723 5.89317 13.9962 5.86938C13.217 5.84559 8.39951 5.96752 7.93857 6.21137C7.47764 6.45522 4.45925 8.57255 4.45925 8.57255L4.0459 11.8556C4.0459 11.8556 5.1908 13.1938 5.1908 13.0957C5.18783 12.9975 5.30975 12.3641 5.30975 12.3641Z" fill="white"/>
<path d="M2.99396 12.3651L0.721993 10.5808C0.721993 10.5808 0.237267 14.2623 2.07209 16.4808C3.41624 18.1015 4.99234 18.7676 6.37812 19.3772C7.67469 19.9452 8.92665 20.3378 8.92665 20.3378L8.9326 22.5146L12.9026 24.626L12.8966 21.7682C12.8966 21.7682 14.4043 22.586 15.1597 23.3889C15.915 24.1918 15.9864 25.188 16.0102 25.8214C16.034 26.4548 15.7188 27.4511 15.7188 27.4511L15.2816 29.3959L20.343 24.287L8.40029 16.3559L2.99396 12.3651Z" fill="white"/>
<path d="M0.998203 23.7893C0.998203 23.7893 0.391553 24.3097 0.567006 25.7223C0.72759 27.0337 1.46806 29.0797 3.68055 30.8788C5.89304 32.6779 8.97388 33.0229 8.97388 33.0229V34.5246L12.929 34.5187L12.9231 33.0288C12.9231 33.0288 15.2842 32.9307 17.2796 31.6639C19.3672 30.3405 20.8928 27.6403 20.8065 25.1037C20.7768 24.2146 20.2118 24.3543 20.2118 24.3543C20.2118 24.3543 12.9498 30.6349 12.4621 30.6825C11.9744 30.7301 7.25503 29.9034 7.25503 29.9034L2.85384 25.1126L0.998203 23.7893Z" fill="white"/>
<path d="M2.85374 23.2628C1.3728 23.4085 0.858337 23.7 0.834547 24.1401C0.810757 24.5772 2.0984 32.2228 11.1 32.0949C19.7359 31.973 20.7589 26.7184 20.8302 24.6754C20.9194 22.219 19.4682 20.176 16.209 18.252C13.7794 16.8216 7.91214 14.6746 6.93971 14.0679C6.04461 13.5088 4.79859 12.2688 4.9681 10.4191C5.1376 8.56938 7.1568 6.74645 10.88 6.77024C14.6031 6.79403 16.0692 9.38717 16.3547 10.1514C16.8127 11.3855 16.7234 12.9944 17.4015 13.2055C17.7167 13.3036 18.6415 13.268 19.1768 13.1936C19.7121 13.1193 20.4734 12.7089 20.515 11.6353C20.5626 10.3953 19.2749 3.46043 10.6629 3.53477C2.44039 3.60317 0.415244 8.6467 0.733438 11.5402C1.03082 14.285 3.2671 16.8662 6.86834 18.3264C10.4696 19.7865 16.8424 21.5618 16.771 24.8449C16.7056 27.7919 13.2887 28.8327 10.4696 28.69C7.62368 28.5443 6.06542 26.8908 5.48256 24.943C4.92052 23.0785 3.84996 23.1677 2.85374 23.2628Z" fill="white"/>
<path d="M4.21956 24.1935C3.91623 23.6284 1.88811 23.7147 1.6294 24.6722C1.3677 25.6268 2.29552 27.1167 2.91704 26.9888C3.77052 26.8104 3.04789 25.7874 3.38095 25.3978C3.71104 25.0023 4.59425 24.8923 4.21956 24.1935Z" fill="#C0B6FF"/>
<path d="M10.7302 0.897405C10.1386 0.882542 9.47575 0.876597 9.44008 1.67324C9.40738 2.44313 9.46089 3.03466 9.75814 3.06439C10.097 3.10006 10.5756 2.36881 10.7837 2.05075C11.0512 1.65243 11.3693 0.91524 10.7302 0.897405Z" fill="#C0B6FF"/>
<path d="M6.18551 5.5901C5.95653 5.26001 4.6897 4.99535 2.9322 7.16621C1.1747 9.33707 1.82298 10.482 2.22444 10.5325C2.77162 10.6009 3.07494 10.1519 3.41098 9.41438C3.88976 8.36464 4.46072 7.72528 5.35286 7.05023C6.11414 6.47332 6.57805 6.1581 6.18551 5.5901Z" fill="#C0B6FF"/>
</svg>
