<svg width="33" height="32" viewBox="0 0 33 32" fill="none" xmlns="http://www.w3.org/2000/svg">
<path d="M16.8043 14.4224C16.4555 14.8244 16.5974 15.3242 16.7923 15.5707C17.1566 16.0321 17.6969 16.0583 17.9842 16.6403C18.2373 17.1524 18.0851 18.0822 16.9651 18.1591C15.845 18.236 14.7334 17.3062 14.4975 16.2016C14.205 14.8296 14.6052 13.2986 16.187 12.5138C17.7688 11.7291 19.8465 12.1328 20.9939 13.3894C22.1807 14.6863 23.022 16.3676 22.4543 18.8005C21.8866 21.2334 19.3933 23.3133 15.4893 22.8991C12.2744 22.5582 9.31431 19.5853 9.45624 15.097C9.59476 10.7241 13.1499 8.043 16.4897 7.50294C19.9422 6.9454 22.3756 8.45897 23.7967 9.61425C24.6808 10.3343 25.4417 11.1383 25.6606 11.3847C25.965 11.7273 26.4267 11.7448 26.49 11.196C26.5738 10.4707 26.1326 9.48142 25.1032 8.2405C24.0737 7.00133 21.088 4.59115 16.187 5.05956C8.64568 5.77789 6.04812 12.6344 6.56285 16.8972C7.07757 21.16 10.0342 25.851 16.8642 25.9979C21.0401 26.087 24.2669 23.3832 25.2707 19.8055C25.8265 17.8253 25.6521 15.3207 24.4773 13.3702C22.8989 10.7538 21.0982 9.69115 18.6358 9.43772C16.6641 9.23498 14.7933 9.81699 13.5621 10.9478C11.0483 13.2549 10.9713 17.4163 13.5911 19.5031C14.9746 20.606 16.623 20.8087 17.8902 20.4085C18.7606 20.1341 19.5199 19.6604 19.9662 18.7761C20.4963 17.7239 20.445 16.691 20.079 15.8818C19.7764 15.2106 19.1351 14.6461 18.5759 14.3577C17.7329 13.926 17.1326 14.0448 16.8043 14.4224Z" fill="#5264FF"/>
</svg>
