<svg width="32" height="33" viewBox="0 0 32 33" fill="none" xmlns="http://www.w3.org/2000/svg">
<path d="M15.8431 32.1641C24.4916 32.1641 31.5025 25.151 31.5025 16.4998C31.5025 7.84862 24.4916 0.835449 15.8431 0.835449C7.19458 0.835449 0.183594 7.84862 0.183594 16.4998C0.183594 25.151 7.19458 32.1641 15.8431 32.1641Z" fill="#999999"/>
<path d="M25.4557 14.6467C25.3334 11.6747 22.8866 9.33203 19.898 9.33203C18.2377 9.33203 16.7346 10.0663 15.721 11.2201C14.7073 10.0663 13.2043 9.33203 11.5439 9.33203C8.60779 9.33203 6.19595 11.6048 5.98623 14.4894C5.98623 14.5593 5.96875 14.6292 5.96875 14.6992V20.9929C5.96875 21.7621 6.59793 22.3915 7.36692 22.3915H7.40187C8.17086 22.3915 8.80004 21.7621 8.80004 20.9929V14.9089C8.80004 13.388 10.0409 12.1467 11.5614 12.1467C13.0819 12.1467 14.3228 13.388 14.3228 14.9089V20.0488C14.3228 20.818 14.952 21.4474 15.721 21.4474H15.7559C16.5249 21.4474 17.1541 20.818 17.1541 20.0488V14.9089C17.1541 13.388 18.395 12.1467 19.9155 12.1467C21.436 12.1467 22.6769 13.388 22.6769 14.9089V21.0104C22.6769 21.7796 23.2885 22.3915 24.0575 22.3915H24.0925C24.8615 22.3915 25.4732 21.7796 25.4732 21.0104V14.7866C25.4557 14.7341 25.4557 14.6817 25.4557 14.6467Z" fill="#1F1F1F"/>
<path d="M20.1771 22.9161C20.1072 22.8112 19.9149 23.021 19.9149 23.021C19.1459 23.8601 17.538 24.4021 15.8777 24.4021C14.2174 24.4021 12.627 23.8601 11.8405 23.021C11.8405 23.021 11.6308 22.8112 11.5783 22.9161C11.491 23.0385 11.6133 23.2308 11.6133 23.2308C12.6095 24.6643 14.1125 25.2937 15.8777 25.2937C17.6429 25.2937 19.1459 24.6469 20.1421 23.2308C20.1421 23.2483 20.2645 23.056 20.1771 22.9161Z" fill="#1F1F1F"/>
</svg>
