<svg width="65" height="25" viewBox="0 0 65 25" fill="none" xmlns="http://www.w3.org/2000/svg">
<path d="M9.07963 12.8669C9.56899 12.8669 9.98844 12.6921 10.338 12.3424C10.4428 12.2375 10.5302 12.1152 10.6001 12.0103C10.6701 12.1327 10.7574 12.2375 10.8448 12.3424C11.1944 12.6921 11.5963 12.8669 12.0857 12.8669C12.5751 12.8669 12.9945 12.6921 13.3266 12.3424C13.6761 11.9928 13.8334 11.5732 13.8334 11.0837C13.8334 10.5942 13.6586 10.1746 13.3266 9.84245C12.9945 9.51028 12.5751 9.33545 12.0857 9.33545C11.5963 9.33545 11.1769 9.51028 10.8448 9.84245C10.74 9.94734 10.6526 10.0522 10.6001 10.1746C10.5302 10.0522 10.4428 9.94734 10.338 9.84245C9.98844 9.4928 9.56899 9.33545 9.07963 9.33545C8.60775 9.33545 8.17083 9.51027 7.83877 9.85992C7.5067 10.2096 7.31445 10.6117 7.31445 11.1012C7.31445 11.5907 7.48922 12.0103 7.82129 12.3599C8.17083 12.6921 8.59028 12.8669 9.07963 12.8669Z" fill="#1F1F1F"/>
<path d="M44.9599 9.86028C44.5405 9.86028 44.191 10.0001 43.9288 10.3148C43.6492 10.612 43.5093 10.9792 43.5093 11.3988C43.5093 11.696 43.5967 12.1505 43.7366 12.7449C43.8764 13.3218 43.9638 13.7764 43.9638 14.0911C43.9638 15.1575 43.1948 15.6994 41.6743 15.6994H41.1325H40.2586H39.8916C38.5284 15.6994 37.2351 15.105 35.9942 13.9162C34.5436 12.4827 33.5824 11.5211 33.0755 11.0141C31.2929 9.28337 29.7724 7.91973 28.4965 6.87078C28.2868 6.69595 28.1819 6.50364 28.1819 6.29385C28.1819 6.08406 28.3218 5.92672 28.5664 5.82182C31.1181 4.82532 33.862 3.98616 36.7632 3.32183C37.672 3.12952 38.1089 2.64001 38.1089 1.88826C38.1089 0.891754 37.5322 0.384766 36.3612 0.384766C36.169 0.384766 35.9243 0.419731 35.6621 0.472178C31.3977 1.46868 28.2868 2.58756 26.2944 3.79386C25.4031 4.33581 24.9662 5.22741 24.9662 6.45119C24.9662 7.0456 25.0535 7.51763 25.2633 7.88476C25.6128 8.49665 26.7488 9.6505 28.6888 11.3113C30.419 12.7974 31.2754 13.8113 31.2754 14.3358C31.2754 15.0526 30.5414 15.4722 29.0733 15.6295C28.7587 15.6645 27.5703 15.6645 25.4905 15.6645H25.0536H24.5642C23.1835 15.6645 22.397 15.105 22.1698 13.9862C22.0475 13.3568 21.9776 12.9722 21.9426 12.8148C21.7504 12.3603 21.4008 12.133 20.8765 12.133C20.4046 12.133 20.0201 12.4302 19.758 13.0421C19.3211 14.0211 19.0589 14.598 18.9191 14.7554C18.0103 15.9092 15.5984 16.4862 11.7011 16.4862H9.81353C7.15701 16.4862 5.3394 16.189 4.36068 15.5596C3.69655 15.14 3.36449 14.4932 3.36449 13.6365C3.36449 13.3918 3.41692 13.0071 3.52178 12.5176C3.62664 12.0106 3.67907 11.6435 3.67907 11.3988C3.67907 10.647 3.31206 10.2799 2.56054 10.2799C1.86146 10.2799 1.30219 10.8918 0.935174 12.1155C0.673018 12.9722 0.533203 13.8638 0.533203 14.7904C0.533203 18.3568 3.57421 20.14 9.65624 20.14C15.4936 20.14 19.1288 19.2309 20.492 17.3953C21.0863 18.654 22.2572 19.2834 23.9874 19.2834H24.1622H25.0536H25.0885C27.7275 19.2834 29.5801 19.126 30.6637 18.7939C32.324 18.2869 33.3377 17.2379 33.7222 15.6645C35.4349 18.0771 37.5671 19.2834 40.1013 19.2834H40.2586H41.1325H41.482C43.1948 19.2834 44.523 18.7764 45.5017 17.7799C46.4805 16.7834 46.9523 15.4197 46.9523 13.689C46.9349 11.1365 46.2707 9.86028 44.9599 9.86028Z" fill="#1F1F1F"/>
<path d="M42.4427 21.189C41.9709 21.189 41.5339 21.3638 41.2019 21.7134C40.9747 21.9407 40.8349 22.2029 40.7475 22.4827C40.6601 22.1855 40.5203 21.9407 40.2931 21.7134C39.9435 21.3638 39.5415 21.189 39.0522 21.189C38.5628 21.189 38.1434 21.3638 37.7938 21.696C37.4443 22.0281 37.2695 22.4477 37.2695 22.9372C37.2695 23.4267 37.4443 23.8463 37.7938 24.1959C38.1434 24.5456 38.5628 24.7204 39.0522 24.7204C39.5415 24.7204 39.961 24.5456 40.2931 24.1959C40.5203 23.9687 40.6426 23.7064 40.73 23.4092C40.8174 23.7064 40.9397 23.9687 41.1669 24.1959C41.5165 24.5456 41.9184 24.7204 42.4078 24.7204C42.8972 24.7204 43.3166 24.5456 43.6661 24.1959C44.0157 23.8463 44.1905 23.4267 44.1905 22.9372C44.1905 22.4477 44.0157 22.0281 43.6661 21.696C43.3166 21.3638 42.9321 21.189 42.4427 21.189Z" fill="#1F1F1F"/>
<path d="M64.0974 12.3427C63.4682 11.3462 62.5594 10.8392 61.3885 10.8392C60.4097 10.8392 59.4485 11.3637 58.4698 12.4127C58.2775 12.6399 57.7882 13.3043 57.0192 14.4057C56.6696 14.9126 56.3376 15.2623 56.0055 15.4197C55.6909 15.5945 55.2365 15.6819 54.6423 15.6819H54.2403C52.615 15.6819 51.8285 14.6854 51.8285 12.7099V2.34272C51.8285 0.961601 51.3042 0.279785 50.2556 0.279785C49.7312 0.279785 49.3118 0.507056 49.0322 0.944119C48.7875 1.32873 48.6826 1.80076 48.6826 2.34272L49.0322 12.1504C49.1195 14.598 49.3817 16.2413 49.7837 17.1329C50.4653 18.584 51.8285 19.3008 53.8733 19.3008H54.0306H54.9045H54.9918C56.1279 19.3008 57.0891 18.8987 57.8756 18.112C58.7669 19.1784 59.9029 19.7029 61.3186 19.7029C62.4196 19.7029 63.3109 19.2658 63.9751 18.3742C64.5868 17.57 64.8839 16.6259 64.8839 15.4896C64.9188 14.2308 64.6392 13.1819 64.0974 12.3427ZM61.2661 16.7134C60.9166 16.7134 60.567 16.6085 60.1476 16.4161C59.6757 16.1714 59.4485 15.8917 59.4485 15.5945C59.4485 15.1924 59.6407 14.8078 60.0427 14.4581C60.4447 14.1085 60.8467 13.9161 61.2312 13.9161C61.6331 13.9161 61.9477 14.1085 62.1924 14.4756C62.3847 14.7903 62.4895 15.1574 62.4895 15.5945C62.4895 16.3462 62.0875 16.7134 61.2661 16.7134Z" fill="#1F1F1F"/>
</svg>
