<svg width="37" height="37" viewBox="0 0 37 37" fill="none" xmlns="http://www.w3.org/2000/svg">
<path d="M32.5192 34.4816H5.46435C4.39808 34.4816 3.53223 33.6157 3.53223 32.5494V5.49462C3.53223 4.42836 4.39808 3.5625 5.46435 3.5625H32.5192C33.5854 3.5625 34.4513 4.42836 34.4513 5.49462V32.5494C34.4539 33.6157 33.588 34.4816 32.5192 34.4816Z" fill="url(#paint0_radial_467_1261)"/>
<path d="M34.4539 22.0948V32.6162C34.4539 33.6824 33.588 34.5483 32.5217 34.5483H5.46435C4.39808 34.5483 3.53223 33.6824 3.53223 32.6162V21.9921C3.53223 21.9921 13.3187 21.7351 20.0015 21.6324C26.6817 21.5296 34.4539 22.0948 34.4539 22.0948Z" fill="#B4D218"/>
<path d="M29.8155 34.5406H5.46358C4.4821 34.5406 3.67277 33.8083 3.54688 32.8628C3.54688 32.8628 4.8675 32.2025 6.15729 31.8402C7.44452 31.478 11.1084 30.5119 10.9876 28.8213C10.8668 27.1307 7.4291 27.2283 7.64749 25.3604C7.74513 24.5203 9.20706 23.5902 10.872 23.0301C13.0302 22.303 15.5507 22.0717 15.5738 22.1103C15.5995 22.1565 14.7465 23.3384 15.1088 24.6667C15.471 25.995 17.1334 26.8352 20.232 27.5186C23.3306 28.2021 26.406 28.8624 28.2174 31.1568C29.9799 33.3895 29.8155 34.5406 29.8155 34.5406Z" fill="#00C1ED"/>
<path d="M4.54199 34.3069C4.81691 34.4559 5.13036 34.5407 5.46437 34.5407H28.136C28.136 34.5407 27.8559 32.904 25.2378 30.8332C23.5061 29.4637 21.7975 29.0937 19.9039 28.6518C16.8156 27.9298 14.6831 27.4828 13.997 25.2706C13.5911 23.9551 14.1666 23.228 14.087 23.1072C14.0073 22.9865 9.00488 24.0527 8.9612 25.3554C8.91752 26.7094 12.2551 26.4499 12.2422 28.8034C12.2294 31.0181 9.16675 32.0921 8.0491 32.4827C5.63395 33.3305 4.54199 34.3069 4.54199 34.3069Z" fill="url(#paint1_radial_467_1261)"/>
<path d="M3.53223 21.9252L16.1886 21.9355L14.8423 19.8929C14.8423 19.8929 14.218 19.6771 13.2082 18.5466C12.1985 17.4161 9.53156 13.3823 8.81216 12.2287C8.09275 11.075 7.01107 9.82635 6.00133 9.87517C4.99159 9.92398 3.53223 10.5226 3.53223 10.5226V21.9252Z" fill="#79A5AB"/>
<path d="M19.0195 13.539L15.6846 20.7305L16.1856 21.7531L20.9105 21.3882L23.8987 11.612L21.6043 10.9954L19.0195 13.539Z" fill="#86B4BB"/>
<path d="M3.53027 9.32032C3.53027 9.32032 4.13406 9.15845 4.78923 9.19442C5.70134 9.24324 6.73163 10.0449 6.73163 10.0449C6.73163 10.0449 5.54718 10.0346 4.81236 10.7077C4.19316 11.2756 3.53284 12.2416 3.53284 12.2416L3.53027 9.32032Z" fill="#E0E0E0"/>
<path d="M21.6988 15.101L20.9075 17.4339L20.54 20.2294L29.2757 20.9822C29.2757 20.9822 32.996 12.4803 32.9781 12.4212C32.9575 12.3621 28.9494 6.57861 28.9494 6.57861L25.8636 7.668L23.338 10.8873L21.6988 15.101Z" fill="#3E727B"/>
<path d="M34.4502 7.84273C34.4502 7.84273 33.1116 6.65571 32.3408 6.38593C31.57 6.11615 28.5819 5.97998 28.5819 5.97998L25.9612 6.92806L23.7053 9.55132L22.3539 12.5754L21.6602 15.1781C21.6602 15.1781 22.1098 15.6971 22.3256 14.7388C22.4952 13.9937 22.7187 13.0379 23.6642 10.9567C24.6097 8.87559 26.5598 6.97687 28.1759 7.17728C29.44 7.33401 30.0361 9.17877 30.3239 10.5097C30.6142 11.8406 30.7581 14.4459 30.7581 14.4459L28.8876 15.4479L27.77 18.6492C27.77 18.6492 27.7109 19.0937 27.6158 19.7284C27.5182 20.3655 27.5182 21.0593 27.5182 21.0593L32.7056 21.234L34.4502 19.9827V7.84273Z" fill="#79A5AB"/>
<path d="M15.7061 20.0858L16.5154 20.2014C16.5154 20.2014 17.1526 18.6008 17.4403 17.8685C17.7307 17.1363 17.9619 16.5582 18.1726 16.3269C18.3858 16.0957 18.9639 16.0366 19.1181 15.7874C19.2723 15.5356 19.8503 13.6677 20.2743 12.9714C20.6982 12.2777 21.2198 11.6611 21.6617 11.4863C22.1062 11.3116 22.4531 11.4273 22.4531 11.4273C22.4531 11.4273 21.9135 12.9123 21.6437 14.0891C21.374 15.2658 20.9115 17.4343 20.9115 17.4343C20.9115 17.4343 21.3739 17.2133 21.5666 16.9436C21.7593 16.6738 21.8056 16.2601 21.8595 15.885C22.119 14.0659 22.4454 13.1538 22.6715 12.3907C22.9695 11.3861 23.6992 9.91136 24.0486 9.34354C24.8399 8.05889 25.4078 7.57843 26.1015 7.09797C26.7952 6.61494 28.0387 6.09594 29.4673 6.17302C30.8932 6.2501 33.0772 6.78451 33.0772 6.78451C33.0772 6.78451 31.4816 5.5461 29.3028 5.56666C27.1241 5.58721 25.6724 6.45821 24.5162 7.78911C23.36 9.12001 22.7228 10.9519 22.7228 10.9519C22.7228 10.9519 22.0471 10.5074 21.1992 10.7001C20.3514 10.8928 19.56 11.2012 18.7121 12.6477C17.8643 14.0942 16.8031 17.1979 16.8031 17.1979L15.7061 20.0858Z" fill="#E0E0DF"/>
<path d="M31.2439 15.6717C31.2439 15.6717 30.0492 15.3634 29.412 15.8259C28.9572 16.1573 28.5847 16.8356 28.1967 18.1203C27.8447 19.2842 27.6674 19.4306 27.6572 19.3972C27.6109 19.2585 27.8087 17.2056 28.0425 16.2704C28.2173 15.5767 28.6952 14.4873 29.7588 14.2458C30.9536 13.9734 31.2054 14.996 31.2439 15.6717Z" fill="#E0E0DF"/>
<path d="M6.20733 13.1819C6.18164 13.1819 6.31525 13.4903 6.38976 13.8936C6.48225 14.3895 6.57732 15.5277 6.60815 17.3365C6.63898 19.1453 6.7289 21.0877 6.7289 21.0877L8.04439 20.6997C8.04439 20.6997 8.00071 17.9634 7.84912 16.5452C7.69753 15.1269 7.48428 14.3998 7.10145 13.7832C6.91903 13.4903 6.44371 13.1768 6.20733 13.1819Z" fill="#ACE4FE"/>
<path d="M6.56445 21.1494C6.56445 21.1494 6.84965 20.7306 7.20678 20.6561C7.56648 20.5816 7.70009 20.6253 7.70009 20.6253C7.70009 20.6253 7.9082 20.0266 8.70212 20.042C9.49347 20.0575 9.76324 21.1623 9.76324 21.1623L6.57987 21.5811L6.56445 21.1494Z" fill="#FCFDFE"/>
<path d="M7.40196 16.0368C7.25294 16.0702 7.34286 16.5583 7.37113 17.3959C7.40196 18.2926 7.34029 18.8604 7.62549 18.8604C7.89526 18.8604 7.77451 18.3234 7.74625 17.3368C7.71798 16.471 7.66917 15.9777 7.40196 16.0368Z" fill="#FCFDFE"/>
<path d="M6.8663 15.561C7.10524 15.5301 7.10267 16.008 7.12066 16.802C7.13608 17.4905 7.16434 17.9068 6.9999 17.9222C6.77637 17.9427 6.8072 17.7295 6.76096 16.6375C6.73012 15.9361 6.69158 15.5841 6.8663 15.561Z" fill="#FCFDFE"/>
<path d="M26.6354 9.40487C26.3091 9.37917 26.2268 9.73117 26.214 10.6998C26.1986 11.7609 26.1164 12.6653 26.1164 12.6653C26.1164 12.6653 25.325 13.801 25.0758 14.5332C24.824 15.2655 24.5928 15.9797 24.4591 16.6734C24.3589 17.1873 24.2228 17.8836 24.5362 18.0043C24.9422 18.1585 25.3456 16.3266 25.713 15.1884C26.1035 13.9731 26.9462 12.9325 26.9462 12.9325C26.9462 12.9325 26.9694 11.7738 26.9462 10.8283C26.936 10.502 26.9771 9.43056 26.6354 9.40487Z" fill="#79A5AB"/>
<path d="M6.98515 22.1358C6.98515 22.1358 13.3622 21.9688 17.2547 22.0022C21.1472 22.0356 25.2761 22.0356 25.2761 22.0356C25.2761 22.0356 23.0613 17.6061 22.8917 17.6395C22.7247 17.6729 21.4144 19.9545 21.4144 19.9545C21.4144 19.9545 19.9884 17.4777 19.8548 17.4109C19.7212 17.3441 18.2233 20.769 18.2233 20.769L17.5733 19.7618L16.8076 20.9822L15.8107 18.8163L14.0328 21.3008C14.0328 21.3008 13.6808 21.1903 13.244 21.1698C12.5862 21.1389 11.818 21.5012 11.818 21.5012C11.818 21.5012 10.4075 21.031 9.4337 21.031C8.45994 21.031 5.6748 21.8018 5.6748 21.8018L6.98515 22.1358Z" fill="#0A7E1D"/>
<path d="M16.8047 20.9902L17.0668 21.4964L17.7913 20.1013C17.7913 20.1013 17.5729 19.6979 17.5241 19.7005C17.4213 19.7082 16.8047 20.9902 16.8047 20.9902Z" fill="#02AB47"/>
<path d="M15.5282 18.362C15.6772 18.398 15.9341 19.0865 15.9341 19.0865L14.9167 21.5685L14.0303 21.309C14.0328 21.309 15.3637 18.3209 15.5282 18.362Z" fill="#02AB47"/>
<path d="M19.8644 17.3855C19.5844 17.3984 18.2227 20.7616 18.2227 20.7616C18.2227 20.7616 18.5824 21.2858 18.6132 21.2909C18.8085 21.3192 20.1419 17.8146 20.1419 17.8146C20.1419 17.8146 19.9338 17.3804 19.8644 17.3855Z" fill="#02AB47"/>
<path d="M23.7883 22.7912C23.7883 22.7912 23.6701 23.097 23.8602 23.1458C24.0503 23.1946 25.466 23.4053 27.7527 23.3102C30.042 23.2151 34.4509 23.1226 34.4509 23.1226L34.4535 19.9829C34.4535 19.9829 32.565 15.6177 32.3286 15.6639C32.0923 15.7102 30.4556 19.5539 30.4556 19.5539C30.4556 19.5539 29.7927 18.3412 29.6771 18.2949C29.5589 18.2487 27.7039 20.5508 27.7039 20.5508C27.7039 20.5508 26.5014 17.1284 26.3113 17.1053C26.1238 17.0822 23.7883 22.7912 23.7883 22.7912Z" fill="#0A7E1D"/>
<path d="M29.3099 17.9096C29.4358 17.8453 29.852 18.5236 29.852 18.5236C29.852 18.5236 28.2719 21.2599 28.1537 21.3088C28.0355 21.355 27.7041 20.5534 27.7041 20.5534C27.7041 20.5534 29.0247 18.0509 29.3099 17.9096Z" fill="#02AB47"/>
<path d="M26.0423 16.4937C25.8316 16.4937 24.2823 20.1267 24.0691 20.6457C23.8558 21.1647 23.1313 22.8476 23.2263 22.9889C23.3214 23.1302 24.2027 23.1995 24.2027 23.1995C24.2027 23.1995 25.2021 20.2911 25.6261 19.3456C26.05 18.4026 26.5279 17.4674 26.5279 17.4674C26.5279 17.4674 26.2607 16.4937 26.0423 16.4937Z" fill="#02AB47"/>
<path d="M32.719 22.3105C32.719 22.3105 27.9812 23.7134 27.7988 23.9215C27.6138 24.1296 27.5907 24.5202 28.03 24.7026C28.4694 24.885 28.6929 24.754 29.1117 25.0237C29.2787 25.1316 28.8933 26.2621 28.8933 26.2621C28.8933 26.2621 26.9021 26.9122 26.8687 27.1999C26.8276 27.5596 27.0871 27.8988 27.547 28.1275C27.9581 28.333 28.5516 28.3638 28.5516 28.3638C28.5516 28.3638 26.2367 30.1212 26.3497 30.558C26.4653 30.9948 26.9612 31.7219 28.0737 31.6937C29.086 31.668 29.2453 31.3031 29.7977 31.7168C30.3501 32.1304 30.3296 33.0811 31.8223 32.9809C32.8578 32.9115 33.1121 32.2563 33.6388 31.9917C34.0628 31.781 34.4585 31.7528 34.4585 31.7528L34.4507 23.1199L32.719 22.3105Z" fill="#0A7E1D"/>
<path d="M29.5457 30.4733C30.3448 30.4733 30.1906 31.6243 31.1773 31.8067C32.1664 31.9917 33.4999 29.9902 32.7882 28.9548C32.0765 27.9194 31.1773 29.1629 30.2369 28.9317C29.294 28.7004 29.294 28.2636 28.5823 28.2868C27.8706 28.3099 26.3906 29.6845 26.3521 30.4476C26.329 30.9075 27.0638 31.131 27.7781 31.0231C28.4872 30.9177 29.1783 30.4733 29.5457 30.4733Z" fill="#02AB47"/>
<path d="M30.6504 25.7843C31.4315 25.8049 32.1458 25.0726 33.1118 25.1625C34.0779 25.255 34.1241 26.3341 34.0085 26.7735C33.8929 27.2103 33.618 27.9682 32.9037 27.9682C32.192 27.9682 32.1689 27.5546 31.7321 27.6008C31.2953 27.6471 30.9973 28.0838 30.4449 28.0145C29.8925 27.9451 29.6407 27.4158 29.227 27.3465C28.8134 27.2771 28.1454 27.6676 27.6161 27.6445C27.0868 27.6214 26.8633 27.1794 26.8633 27.1794C26.8633 27.1794 26.9712 26.7941 27.3386 26.5885C27.706 26.383 28.0066 26.2442 28.4897 25.7843C28.9727 25.3244 29.1089 25.0264 29.1089 25.0264C29.1089 25.0264 29.8 25.7612 30.6504 25.7843Z" fill="#02AB47"/>
<path d="M32.1903 18.6313C31.661 18.6622 31.3861 19.9879 30.3275 21.2752C29.269 22.5624 27.7891 23.9318 27.7891 23.9318C27.7891 23.9318 27.9124 24.2453 28.2824 24.2427C28.8116 24.2376 29.2253 23.7597 29.639 23.9215C30.0526 24.0834 29.9833 24.7951 30.6281 24.8414C31.273 24.8876 32.1466 24.0372 32.7196 24.014C33.2951 23.9909 33.2951 24.5896 33.8475 24.5664C34.3999 24.5433 34.4539 24.289 34.4539 24.289V22.5367C34.4539 22.5367 33.5957 21.4139 33.2488 20.4247C32.9046 19.4355 32.5834 18.6082 32.1903 18.6313Z" fill="#02AB47"/>
<path d="M3.53516 31.5344C3.53516 31.5344 4.56802 31.6808 5.35423 31.1361C6.48729 30.3499 6.55152 29.5072 6.55152 29.5072C6.55152 29.5072 6.85213 29.9286 8.02374 29.9517C9.19534 29.9748 9.69893 28.9779 9.67324 28.8417C9.66039 28.7749 8.50677 27.3695 8.50677 27.3695L7.15531 24.6486L7.31204 23.9883L5.33367 21.3445L4.5526 16.7454C4.5526 16.7454 4.34449 16.3086 4.20832 16.4243C4.07214 16.5399 3.54029 17.5753 3.54029 17.5753L3.53516 31.5344Z" fill="#0A7E1D"/>
<path d="M5.51543 25.0239C5.05809 24.9776 4.61874 24.3327 4.52624 22.7243C4.43375 21.1134 4.61874 18.4927 4.50312 17.781C4.3875 17.0693 4.20508 16.4244 4.20508 16.4244C4.20508 16.4244 4.29757 16.1931 4.47999 16.4475C4.66242 16.7019 5.63104 18.3796 6.09095 19.5281C6.55086 20.6791 8.10529 23.4412 8.34423 23.8522C8.76046 24.5665 9.08163 25.1703 8.52922 25.1934C7.97682 25.2166 7.21631 24.7258 7.21631 24.7258C7.21631 24.7258 8.13612 26.6348 8.41104 27.0253C8.68595 27.4159 9.46959 28.5669 9.46959 28.5669C9.46959 28.5669 9.33085 29.0268 8.59603 28.8187C7.8612 28.6106 7.00049 26.717 6.80265 26.2083C6.60995 25.7124 6.58426 25.2705 6.60995 25.0598C6.6562 24.6693 6.98764 24.5871 6.98764 24.5871C6.98764 24.5871 6.62023 24.1965 6.43524 23.8959C6.25025 23.5979 6.0447 23.1842 6.0447 23.1842C6.0447 23.1842 6.20657 25.0932 5.51543 25.0239Z" fill="#00AA48"/>
<path d="M24.7264 10.4457C24.436 10.4817 24.3435 10.9441 24.3204 11.5248C24.2973 12.1029 24.2999 12.5088 24.2999 12.5088C24.2999 12.5088 23.8939 13.3773 23.7989 13.7627C23.7038 14.1481 24.0121 14.3228 24.2819 13.9939C24.5517 13.665 25.1298 12.5859 25.1298 12.5859C25.1298 12.5859 25.1503 11.8151 25.1503 11.5068C25.1503 11.1985 25.2094 10.3892 24.7264 10.4457Z" fill="#79A5AB"/>
<path d="M13.4594 10.2197C13.5776 10.916 14.5693 10.8261 15.9953 10.8518C17.5857 10.8826 18.8216 11.0111 18.9218 10.1632C19.022 9.31274 16.946 9.4001 16.1135 9.41037C15.2785 9.42322 13.3181 9.38211 13.4594 10.2197Z" fill="#FFFFFE"/>
<path d="M7.78136 6.69443C7.79935 7.6014 9.2433 7.82236 11.6302 7.84291C14.0171 7.8609 15.515 7.65792 15.479 6.76894C15.443 5.87996 12.7221 5.71552 11.3167 5.659C9.91132 5.60247 7.76338 5.76948 7.78136 6.69443Z" fill="#FFFFFE"/>
<defs>
<radialGradient id="paint0_radial_467_1261" cx="0" cy="0" r="1" gradientUnits="userSpaceOnUse" gradientTransform="translate(14.9856 24.8531) scale(20.8123 20.8123)">
<stop offset="0.2828" stop-color="#AFE4FE"/>
<stop offset="0.7021" stop-color="#84D4F9"/>
<stop offset="0.9653" stop-color="#67C9F6"/>
</radialGradient>
<radialGradient id="paint1_radial_467_1261" cx="0" cy="0" r="1" gradientUnits="userSpaceOnUse" gradientTransform="translate(16.7581 19.7011) scale(29.3674 29.3674)">
<stop offset="0.3072" stop-color="#8CDBFC"/>
<stop offset="0.4122" stop-color="#54D1F5"/>
<stop offset="0.5139" stop-color="#23C7EE"/>
<stop offset="0.5642" stop-color="#10C4EC"/>
</radialGradient>
</defs>
</svg>
