<svg width="37" height="37" viewBox="0 0 37 37" fill="none" xmlns="http://www.w3.org/2000/svg">
<path d="M32.5192 34.4816H5.46435C4.39808 34.4816 3.53223 33.6157 3.53223 32.5494V5.49462C3.53223 4.42836 4.39808 3.5625 5.46435 3.5625H32.5192C33.5854 3.5625 34.4513 4.42836 34.4513 5.49462V32.5494C34.4539 33.6157 33.588 34.4816 32.5192 34.4816Z" fill="url(#paint0_radial_467_1265)"/>
<path d="M33.7208 18.5851H28.8391V24.2016H18.0197V7.39575H9.91613V24.2016H8.76508V15.1782H5.72559V26.1363H8.16643V32.6726H33.1221V29.8181H33.7208V18.5851Z" fill="#6BA3AE"/>
<path d="M31.8913 23.418H31.1514V24.4303H31.8913V23.418Z" fill="#3F737B"/>
<path d="M30.4148 23.418H29.6748V24.4303H30.4148V23.418Z" fill="#3F737B"/>
<path d="M31.8913 21.5247H31.1514V22.537H31.8913V21.5247Z" fill="#3F737B"/>
<path d="M30.4148 21.5247H29.6748V22.537H30.4148V21.5247Z" fill="#FDE064"/>
<path d="M31.8913 19.7261H31.1514V20.7384H31.8913V19.7261Z" fill="#FDE064"/>
<path d="M30.4148 19.7261H29.6748V20.7384H30.4148V19.7261Z" fill="#3F737B"/>
<path d="M14.1965 15.1782H13.5645V17.1283L14.1888 17.1232L14.1965 15.1782Z" fill="#3F737B"/>
<path d="M12.8143 15.1782H12.1797V17.1283H12.8143V15.1782Z" fill="#3F737B"/>
<path d="M11.4917 15.1782H10.8828V17.1283H11.4917V15.1782Z" fill="#3F737B"/>
<path d="M15.5157 12.095L14.8477 12.0975L14.8656 14.0451H15.5105L15.5157 12.095Z" fill="#3F737B"/>
<path d="M14.1965 12.095H13.5645V14.0451L14.1888 14.0399L14.1965 12.095Z" fill="#3F737B"/>
<path d="M12.8143 12.095H12.1797V14.0451H12.8143V12.095Z" fill="#3F737B"/>
<path d="M11.4917 12.095H10.8828V14.0451H11.4917V12.095Z" fill="#3F737B"/>
<path d="M30.5474 13.3825C30.6193 13.4673 31.5134 13.3671 31.5134 13.3671C31.5134 13.3671 31.9964 14.0634 32.0966 14.0634C32.2662 14.0634 32.4384 13.1692 32.4384 13.1692C32.4384 13.1692 33.2477 13.123 33.276 13.0125C33.3145 12.8584 32.5797 12.3316 32.5797 12.3316C32.5797 12.3316 32.7184 11.4786 32.5951 11.4067C32.4615 11.3296 31.7858 11.8897 31.7858 11.8897C31.7858 11.8897 30.9173 11.4221 30.8171 11.548C30.74 11.6456 31.0432 12.5295 31.0432 12.5295C31.0432 12.5295 30.496 13.3208 30.5474 13.3825Z" fill="#FFD420"/>
<path d="M16.2653 9.01221L16.2627 10.9623H16.9204V9.01221H16.2653Z" fill="#3F737B"/>
<path d="M15.5157 9.01221L14.8477 9.01478L14.8656 10.9623H15.5105L15.5157 9.01221Z" fill="#3F737B"/>
<path d="M14.1862 9.01221H13.5645V10.9623L14.1708 10.9572L14.1862 9.01221Z" fill="#3F737B"/>
<path d="M14.1965 9.01221H13.5645V10.9623L14.1888 10.9572L14.1965 9.01221Z" fill="#3F737B"/>
<path d="M12.8143 9.01221H12.1797V10.9623H12.8143V9.01221Z" fill="#3F737B"/>
<path d="M12.8143 9.01221H12.1797V10.9623H12.8143V9.01221Z" fill="#3F737B"/>
<path d="M11.4917 9.01221H10.8828V10.9623H11.4917V9.01221Z" fill="#3F737B"/>
<path d="M11.4917 9.01221H10.8828V10.9623H11.4917V9.01221Z" fill="#3F737B"/>
<path d="M6.65881 9.54632C6.6845 9.63111 7.36023 9.71846 7.36023 9.71846C7.36023 9.71846 7.60689 10.4404 7.68397 10.461C7.815 10.497 8.12332 9.8238 8.12332 9.8238C8.12332 9.8238 8.80932 9.86748 8.85557 9.78783C8.90953 9.69534 8.47788 9.15835 8.47788 9.15835C8.47788 9.15835 8.6937 8.50832 8.6269 8.44922C8.55496 8.39013 7.9075 8.65477 7.9075 8.65477C7.9075 8.65477 7.39363 8.15889 7.27545 8.21028C7.17267 8.25396 7.21121 8.99392 7.21121 8.99392C7.21121 8.99392 6.62284 9.42556 6.65881 9.54632Z" fill="#FFD420"/>
<path d="M27.282 7.14428C27.1818 7.16484 27.634 8.15916 27.6057 9.50291C27.5672 11.3066 26.1566 12.4602 24.4789 12.4165C23.2173 12.3831 22.3797 11.8333 22.3052 11.9617C22.2744 12.0157 22.5185 13.1719 23.7081 13.8014C25.5657 14.7828 27.3873 14.2125 28.3919 13.1488C29.3682 12.1159 29.7151 10.4304 29.1293 9.00189C28.5127 7.50399 27.4002 7.12116 27.282 7.14428Z" fill="#FEF7B0"/>
<path d="M19.4774 9.01956C19.5263 9.13261 20.4641 9.23539 20.4641 9.23539C20.4641 9.23539 20.8058 10.1603 20.9137 10.1835C21.0961 10.2271 21.4815 9.33045 21.4815 9.33045C21.4815 9.33045 22.4219 9.3176 22.4758 9.20198C22.5709 8.99901 21.872 8.38751 21.872 8.38751C21.872 8.38751 22.3037 7.50624 22.1213 7.39833C21.9363 7.29042 21.1295 7.71435 21.1295 7.71435C21.1295 7.71435 20.3279 7.01036 20.1763 7.10286C19.9682 7.23132 20.22 8.19482 20.22 8.19482C20.22 8.19482 19.3952 8.82173 19.4774 9.01956Z" fill="#FFD420"/>
<path d="M32.1029 15.2478C32.0104 15.4353 32.1029 26.2187 32.1029 26.2187H28.0254V20.0524H26.7125V18.0817H25.5486V16.4091H23.4521V18.1665H22.1186V20.0087H20.7415V28.9884H19.4465V18.9681H20.0503V17.0566H19.4465V13.0973H18.7657L17.8381 10.2299H16.0114L15.0941 13.0973H14.3773V17.0566H13.7401V18.9681H14.3773V28.9884H12.5325V19.983H6.97253V9.87022C6.97253 9.87022 3.5425 9.84709 3.53223 9.85737V32.5495C3.53223 33.6158 4.39808 34.4816 5.46435 34.4816H32.5192C33.5854 34.4816 34.4513 33.6158 34.4513 32.5495V15.2478H32.1029Z" fill="url(#paint1_radial_467_1265)"/>
<path d="M26.7785 32.4878H26.1953V33.2817H26.7785V32.4878Z" fill="#3F737B"/>
<path d="M24.7698 32.4878H24.1865V33.2817H24.7698V32.4878Z" fill="#3F737B"/>
<path d="M22.761 32.4878H22.1777V33.2817H22.761V32.4878Z" fill="#3F737B"/>
<path d="M11.7227 32.4131H4.02246V33.0169H11.7227V32.4131Z" fill="#3F737B"/>
<path d="M11.7227 30.2678H4.02246V30.8716H11.7227V30.2678Z" fill="#3F737B"/>
<path d="M26.7785 30.0544H26.1953V30.8484H26.7785V30.0544Z" fill="#3F737B"/>
<path d="M24.7698 30.0544H24.1865V30.8484H24.7698V30.0544Z" fill="#FDE064"/>
<path d="M22.761 30.0544H22.1777V30.8484H22.761V30.0544Z" fill="#3F737B"/>
<path d="M11.7227 28.0457H4.02246V28.6494H11.7227V28.0457Z" fill="#3F737B"/>
<path d="M18.6467 27.6577H18.0635V28.8807H18.6467V27.6577Z" fill="#3F737B"/>
<path d="M17.3157 27.6577H16.7324V28.8807H17.3157V27.6577Z" fill="#3F737B"/>
<path d="M15.9338 27.6577H15.3506V28.8807H15.9338V27.6577Z" fill="#3F737B"/>
<path d="M26.7785 27.4856H26.1953V28.2795H26.7785V27.4856Z" fill="#FDE064"/>
<path d="M24.7698 27.4856H24.1865V28.2795H24.7698V27.4856Z" fill="#3F737B"/>
<path d="M22.761 27.4856H22.1777V28.2795H22.761V27.4856Z" fill="#3F737B"/>
<path d="M11.7227 25.9001H4.02246V26.5039H11.7227V25.9001Z" fill="#3F737B"/>
<path d="M26.7785 25.0571H26.1953V25.851H26.7785V25.0571Z" fill="#FDE064"/>
<path d="M24.7698 25.0571H24.1865V25.851H24.7698V25.0571Z" fill="#FDE064"/>
<path d="M22.761 25.0571H22.1777V25.851H22.761V25.0571Z" fill="#3F737B"/>
<path d="M18.6467 23.7549H18.0635V24.9779H18.6467V23.7549Z" fill="#3F737B"/>
<path d="M17.3157 23.7549H16.7324V24.9779H17.3157V23.7549Z" fill="#FDE064"/>
<path d="M15.9338 23.7549H15.3506V24.9779H15.9338V23.7549Z" fill="#3F737B"/>
<path d="M11.7227 23.4207H4.02246V24.0244H11.7227V23.4207Z" fill="#3F737B"/>
<path d="M26.7785 22.4883H26.1953V23.2822H26.7785V22.4883Z" fill="#FDE064"/>
<path d="M24.7698 22.4883H24.1865V23.2822H24.7698V22.4883Z" fill="#FDE064"/>
<path d="M22.761 22.4883H22.1777V23.2822H22.761V22.4883Z" fill="#FDE064"/>
<path d="M18.6467 21.4424H18.0635V22.6654H18.6467V21.4424Z" fill="#FDE064"/>
<path d="M17.3157 21.4424H16.7324V22.6654H17.3157V21.4424Z" fill="#3F737B"/>
<path d="M15.9338 21.4424H15.3506V22.6654H15.9338V21.4424Z" fill="#3F737B"/>
<path d="M11.7227 21.2751H4.02246V21.8789H11.7227V21.2751Z" fill="#FDE064"/>
<path d="M18.6467 19.1299H18.0635V20.3529H18.6467V19.1299Z" fill="#3F737B"/>
<path d="M17.3157 19.1299H16.7324V20.3529H17.3157V19.1299Z" fill="#3F737B"/>
<path d="M15.9338 19.1299H15.3506V20.3529H15.9338V19.1299Z" fill="#FDE064"/>
<path d="M25.841 19.04H25.2578V21.5297H25.841V19.04Z" fill="#FDE064"/>
<path d="M24.759 19.04H24.1758V21.5297H24.759V19.04Z" fill="#FDE064"/>
<path d="M23.6555 19.04H23.0723V21.5297H23.6555V19.04Z" fill="#FDE064"/>
<path d="M6.01665 18.8242H5.56445V19.7749H6.01665V18.8242Z" fill="#3F737B"/>
<path d="M4.47466 18.8242H4.02246V19.7749H4.47466V18.8242Z" fill="#3F737B"/>
<path d="M6.01665 16.9153H5.56445V17.8659H6.01665V16.9153Z" fill="#3F737B"/>
<path d="M4.47466 16.9153H4.02246V17.8659H4.47466V16.9153Z" fill="#FDE064"/>
<path d="M6.01665 15.0061H5.56445V15.9567H6.01665V15.0061Z" fill="#3F737B"/>
<path d="M4.47466 15.0061H4.02246V15.9567H4.47466V15.0061Z" fill="#FDE064"/>
<path d="M16.4323 16.4194H17.6296V14.6415C17.6296 14.6415 17.6733 13.9734 17.0258 13.958C16.4169 13.9426 16.4092 14.626 16.4092 14.626C16.4092 14.626 16.4477 16.4194 16.4323 16.4194Z" fill="#3F737B"/>
<path d="M6.01665 13.0972H5.56445V14.0478H6.01665V13.0972Z" fill="#FDE064"/>
<path d="M4.47466 13.0972H4.02246V14.0478H4.47466V13.0972Z" fill="#3F737B"/>
<path d="M6.01665 11.1855H5.56445V12.1362H6.01665V11.1855Z" fill="#3F737B"/>
<path d="M4.47466 11.1855H4.02246V12.1362H4.47466V11.1855Z" fill="#FDE064"/>
<path d="M5.0554 6.31922C5.09137 6.41685 5.93667 6.48879 5.93667 6.48879C5.93667 6.48879 6.31436 7.29812 6.40685 7.31354C6.52247 7.33152 6.91815 6.57358 6.91815 6.57358C6.91815 6.57358 7.78657 6.49907 7.81997 6.39886C7.86879 6.26012 7.25729 5.70772 7.25729 5.70772C7.25729 5.70772 7.4577 4.74937 7.38576 4.69798C7.29326 4.63375 6.50449 5.05255 6.50449 5.05255C6.50449 5.05255 5.77994 4.54125 5.66175 4.63375C5.55127 4.71854 5.73626 5.60752 5.73626 5.60752C5.73626 5.60752 4.99373 6.15221 5.0554 6.31922Z" fill="#FFD420"/>
<defs>
<radialGradient id="paint0_radial_467_1265" cx="0" cy="0" r="1" gradientUnits="userSpaceOnUse" gradientTransform="translate(19.6476 38.4394) scale(34.6551 34.6551)">
<stop offset="0.4216" stop-color="#A8D793"/>
<stop offset="0.5608" stop-color="#7DAD8B"/>
<stop offset="0.7052" stop-color="#4C7D82"/>
<stop offset="0.7809" stop-color="#457986"/>
<stop offset="0.8899" stop-color="#326C8F"/>
<stop offset="1" stop-color="#185B9D"/>
</radialGradient>
<radialGradient id="paint1_radial_467_1265" cx="0" cy="0" r="1" gradientUnits="userSpaceOnUse" gradientTransform="translate(19.5361 -10.5343) scale(44.461 44.461)">
<stop offset="0.0392" stop-color="#163387"/>
<stop offset="0.3779" stop-color="#163284"/>
<stop offset="0.6215" stop-color="#17317B"/>
<stop offset="0.8346" stop-color="#182E6B"/>
<stop offset="1" stop-color="#1A2B59"/>
</radialGradient>
</defs>
</svg>
